<?xml version="1.0" standalone="no"?><!DOCTYPE svg PUBLIC "-//W3C//DTD SVG 1.1//EN" "http://www.w3.org/Graphics/SVG/1.1/DTD/svg11.dtd"><svg t="1542346444300" class="icon" style="" viewBox="0 0 1058 1024" version="1.1" xmlns="http://www.w3.org/2000/svg" p-id="8890" xmlns:xlink="http://www.w3.org/1999/xlink" width="66.125" height="64"><defs><style type="text/css"></style></defs><path d="M516.384236 1024c-69.075889 0-136.149578-13.514848-199.344006-40.294269-60.941953-25.778321-115.752169-62.693878-162.803862-109.74557-47.051693-47.051693-83.967249-101.736771-109.74557-162.803861C17.836515 648.212147 4.321667 581.138458 4.321667 512.062569c0-69.075889 13.514848-136.149578 40.294269-199.344006 25.778321-60.941953 62.693878-115.752169 109.74557-162.803862C201.413198 102.863009 256.098277 65.947452 317.165367 40.169131 380.10952 13.514848 447.183209 0 516.384236 0 585.460125 0 652.533814 13.514848 715.603104 40.294269c60.941953 25.778321 115.752169 62.693878 162.803862 109.74557 47.051693 47.051693 83.967249 101.736771 109.74557 162.803861 26.654283 63.194427 40.294269 130.142979 40.294269 199.344006 0 69.075889-13.514848 136.149578-40.294269 199.344006-25.778321 60.941953-62.693878 115.752169-109.74557 162.678724-47.051693 47.051693-101.736771 83.967249-162.678724 109.74557-63.194427 26.529146-130.268117 40.043994-199.344006 40.043994m0-988.961506c-64.445802 0-126.889405 12.638885-185.704021 37.541244-56.812416 24.026396-107.74337 58.439203-151.541488 102.237322S100.927802 269.67127 76.901406 326.358548c-24.902359 58.814616-37.416107 121.258218-37.416107 185.704021S52.124185 638.951974 76.901406 697.766589C100.927802 754.579005 135.340609 805.50996 179.138727 849.433215c43.798118 43.798118 94.85421 78.210925 151.541488 102.237321 58.814616 24.902359 121.258218 37.416107 185.704021 37.416107s126.889405-12.638885 185.70402-37.416107c56.812416-24.026396 107.74337-58.439203 151.541489-102.237321s78.210925-94.85421 102.237321-151.666626c24.902359-58.814616 37.416107-121.258218 37.416107-185.70402s-12.638885-126.889405-37.416107-185.704021c-24.026396-56.812416-58.439203-107.74337-102.237321-151.541488S758.775535 96.606135 702.088256 72.579738c-58.939753-24.902359-121.383356-37.541244-185.70402-37.541244m0 0z" fill="#ffffff" p-id="8891"></path><path d="M771.41442 387.425639c29.031895-53.809116-4.129537-124.261518-4.129536-124.261518-74.581938 0-128.391055 49.67958-128.391055 49.679579-29.031895-16.518147-124.261518-16.518147-124.261518-16.518147s-95.229622 0-124.261518 16.518147c0 0-53.809116-49.67958-128.391054-49.679579 0 0-33.161432 70.452401-4.129537 124.261518 0 0-66.322864 62.06819-41.420506 194.713919C239.830405 706.65135 348.950287 739.562508 419.402689 739.562508c0 0-29.031895 24.902359-24.902359 66.322864 0 0-41.420506 24.902359-82.841012 8.259074-41.420506-16.518147-62.06819-57.938653-62.06819-57.938654s-41.420506-53.809116-82.841012-33.161432c0 0-12.388611 12.388611 33.161433 33.161432 0 0 33.161432 49.67958 45.550042 78.711476 12.388611 29.031895 78.711475 53.809116 144.909202 37.290969v95.104484s0 8.259074-16.518147 12.388611c-16.518147 4.129537-16.518147 12.388611-8.259074 12.388611H663.796187c8.259074 0 8.259074-8.259074-8.259073-12.388611s-16.518147-12.388611-16.518148-12.388611v-95.229622s0.375412-49.67958 0-66.322864c-0.875962-41.670781-29.031895-66.322864-29.031895-66.322865 70.452401 0 179.572284-32.78602 202.972993-157.42295C837.612147 449.618966 771.41442 387.425639 771.41442 387.425639z" fill="#ffffff" p-id="8892"></path></svg>