<svg height="128" viewBox="0 0 1035 1024" width="129.375" xmlns="http://www.w3.org/2000/svg"><path d="m180 304h-32.96a3.84 3.84 0 0 0 -3.84 3.84v434.88l40.64 41.28v-476.16a3.84 3.84 0 0 0 -3.84-3.84zm71.36 0h-32.96a3.84 3.84 0 0 0 -3.84 3.84v506.24l40.64 40.64v-546.88a3.84 3.84 0 0 0 -3.84-3.84zm590.24-51.52v596.48a3.84 3.84 0 0 0 3.84 3.84h32.96a3.84 3.84 0 0 0 3.84-3.84v-556zm-71.36 49.76v546.72a3.84 3.84 0 0 0 3.84 3.84h32.96a3.84 3.84 0 0 0 3.84-3.84v-627.2l-40.64-40.64zm-68.64-190.24a3.84 3.84 0 0 0 -2.56 3.52v563.04l-372.48-372.32a3.84 3.84 0 0 0 -3.04-1.76h-33.76a3.84 3.84 0 0 0 -3.84 3.84v577.6l31.04 31.04v-32a3.84 3.84 0 0 1 1.12-2.72 3.84 3.84 0 0 0 -1.12 2.72v32l7.04 7.04a3.84 3.84 0 0 0 2.56-3.52v-442.24l372.96 372.96a3.84 3.84 0 0 0 3.04 1.44h33.44a3.84 3.84 0 0 0 3.84-3.84v-698.4l-31.2-31.04zm-375.04 251.52 372.48 372.48v57.28l-372.48-372.32z" fill="#b40a1f"/></svg>