<svg height="32" viewBox="0 0 1024 1024" width="32" xmlns="http://www.w3.org/2000/svg"><path d="m153.6 261.688889-85.333333-147.911111-51.2 28.444444 85.333333 147.911111zm438.044444-39.822222-45.511111-164.977778-56.888889 17.066667 45.511112 164.977777zm62.577778 409.6c-11.377778 0-17.066667 0-28.444444-5.688889v5.688889c0 62.577778-51.2 113.777778-113.777778 113.777777s-113.777778-51.2-113.777778-113.777777 51.2-113.777778 113.777778-113.777778c22.755556 0 39.822222 5.688889 56.888889 17.066667 0-17.066667 11.377778-39.822222 28.444444-51.2-28.444444-17.066667-56.888889-22.755556-85.333333-22.755556-96.711111 0-170.666667 73.955556-170.666667 170.666667s73.955556 170.666667 170.666667 170.666666 170.666667-73.955556 170.666667-170.666666v-5.688889c-11.377778 0-17.066667 5.688889-28.444445 5.688889zm-142.222222-341.333334c-284.444444 0-512 153.6-512 341.333334s227.555556 341.333333 512 341.333333 512-153.6 512-341.333333-227.555556-341.333333-512-341.333334zm0 625.777778c-250.311111 0-455.111111-125.155556-455.111111-284.444444s204.8-284.444444 455.111111-284.444445 455.111111 125.155556 455.111111 284.444445c0 153.6-204.8 284.444444-455.111111 284.444444zm494.933333-773.688889-51.2-28.444444-85.333333 147.911111 51.2 28.444444z" fill="#2c2c2c"/></svg>