<?xml version="1.0" standalone="no"?><!DOCTYPE svg PUBLIC "-//W3C//DTD SVG 1.1//EN" "http://www.w3.org/Graphics/SVG/1.1/DTD/svg11.dtd"><svg t="1534918507500" class="icon" style="" viewBox="0 0 1024 1024" version="1.1" xmlns="http://www.w3.org/2000/svg" p-id="4884" xmlns:xlink="http://www.w3.org/1999/xlink" width="128" height="128"><defs><style type="text/css"></style></defs><path d="M273.454545 927.418182h-3.490909c-4.654545-1.163636-8.145455-5.818182-8.145454-10.472727L178.036364 91.927273c-1.163636-5.818182 3.490909-11.636364 10.472727-12.8 6.981818-1.163636 11.636364 3.490909 12.8 10.472727l80.290909 797.090909 525.963636-598.109091 1.163637-1.163636s15.127273-12.8 12.8-33.745455c-2.327273-25.6-27.927273-67.490909-134.981818-123.345454-1.163636 0-151.272727-62.836364-272.29091-30.254546L384 246.690909c-1.163636 5.818182-6.981818 10.472727-13.963636 9.309091-5.818182-1.163636-10.472727-6.981818-9.309091-13.963636l32.581818-153.6c1.163636-4.654545 3.490909-6.981818 8.145454-9.309091 130.327273-39.563636 288.581818 26.763636 295.563637 29.090909 94.254545 48.872727 143.127273 96.581818 147.781818 141.963636 3.490909 30.254545-16.290909 48.872727-19.781818 53.527273L282.763636 922.763636c-2.327273 2.327273-5.818182 4.654545-9.309091 4.654546z" fill="#768fc3" p-id="4885"></path><path d="M662.109091 349.090909c-83.781818 0-200.145455-23.272727-342.109091-110.545454-4.654545-3.490909-108.218182-77.963636-139.636364-133.818182-3.490909-5.818182-1.163636-12.8 4.654546-16.290909 5.818182-3.490909 12.8-1.163636 16.290909 4.654545 27.927273 51.2 130.327273 124.509091 131.490909 125.672727 285.090909 175.709091 465.454545 80.290909 467.781818 79.127273 5.818182-3.490909 12.8-1.163636 16.290909 4.654546 3.490909 5.818182 1.163636 12.8-4.654545 16.290909-4.654545 2.327273-58.181818 30.254545-150.109091 30.254545zM446.836364 948.363636c-47.709091 0-105.890909-5.818182-173.381819-22.109091-5.818182-1.163636-10.472727-8.145455-8.145454-13.963636 1.163636-5.818182 8.145455-10.472727 13.963636-8.145454 221.090909 52.363636 332.8-9.309091 332.8-10.472728 5.818182-3.490909 12.8-1.163636 16.290909 4.654546 3.490909 5.818182 1.163636 12.8-4.654545 16.290909-3.490909 1.163636-61.672727 33.745455-176.872727 33.745454zM313.018182 570.181818c-2.327273 0-4.654545-1.163636-6.981818-2.327273l-75.636364-61.672727c-4.654545-3.490909-5.818182-11.636364-1.163636-16.290909 3.490909-4.654545 11.636364-5.818182 16.290909-1.163636l60.509091 48.872727 26.763636-140.8-118.690909-75.636364c-5.818182-3.490909-6.981818-10.472727-3.490909-16.290909 3.490909-5.818182 10.472727-6.981818 16.290909-3.490909l125.672727 80.290909c3.490909 2.327273 5.818182 6.981818 4.654546 11.636364l-32.581819 167.563636c-1.163636 3.490909-3.490909 6.981818-6.981818 9.309091h-4.654545zM634.181818 508.509091h-1.163636c-175.709091-20.945455-256-82.618182-259.490909-84.945455-4.654545-3.490909-5.818182-11.636364-2.327273-16.290909 3.490909-4.654545 11.636364-5.818182 16.290909-2.327272 1.163636 1.163636 79.127273 60.509091 246.690909 80.290909 5.818182 1.163636 10.472727 6.981818 10.472727 12.8 0 6.981818-4.654545 10.472727-10.472727 10.472727zM410.763636 548.072727H407.272727c-23.272727-6.981818-43.054545-26.763636-44.218182-27.927272-4.654545-4.654545-4.654545-11.636364 0-16.29091 4.654545-4.654545 11.636364-4.654545 16.29091 0 0 0 17.454545 17.454545 33.745454 22.109091 5.818182 2.327273 9.309091 8.145455 8.145455 13.963637-1.163636 4.654545-5.818182 8.145455-10.472728 8.145454zM548.072727 585.309091h-13.963636c-6.981818 0-11.636364-5.818182-11.636364-11.636364s5.818182-11.636364 11.636364-11.636363c13.963636 0 31.418182 0 36.072727-1.163637 4.654545-2.327273 9.309091-1.163636 12.8 1.163637 4.654545 4.654545 5.818182 11.636364 1.163637 16.290909-2.327273 3.490909-4.654545 6.981818-36.072728 6.981818z m18.618182-22.109091zM402.618182 729.6c-108.218182 0-158.254545-64-160.581818-66.327273-3.490909-4.654545-3.490909-12.8 2.327272-16.290909 4.654545-3.490909 12.8-3.490909 16.290909 2.327273 2.327273 3.490909 58.181818 72.145455 181.527273 54.690909 5.818182-1.163636 12.8 3.490909 12.8 9.309091s-3.490909 12.8-9.309091 12.8c-15.127273 2.327273-29.090909 3.490909-43.054545 3.490909z" fill="#768fc3" p-id="4886"></path></svg>