<?xml version="1.0" standalone="no"?><!DOCTYPE svg PUBLIC "-//W3C//DTD SVG 1.1//EN" "http://www.w3.org/Graphics/SVG/1.1/DTD/svg11.dtd"><svg t="1534929142415" class="icon" style="" viewBox="0 0 1024 1024" version="1.1" xmlns="http://www.w3.org/2000/svg" p-id="55637" xmlns:xlink="http://www.w3.org/1999/xlink" width="32" height="32"><defs><style type="text/css"></style></defs><path d="M153.6 261.688889L68.266667 113.777778l-51.2 28.444444 85.333333 147.911111 51.2-28.444444z m438.044444-39.822222L546.133333 56.888889l-56.888889 17.066667 45.511112 164.977777 56.888888-17.066666z m62.577778 409.6c-11.377778 0-17.066667 0-28.444444-5.688889v5.688889c0 62.577778-51.2 113.777778-113.777778 113.777777s-113.777778-51.2-113.777778-113.777777 51.2-113.777778 113.777778-113.777778c22.755556 0 39.822222 5.688889 56.888889 17.066667 0-17.066667 11.377778-39.822222 28.444444-51.2-28.444444-17.066667-56.888889-22.755556-85.333333-22.755556-96.711111 0-170.666667 73.955556-170.666667 170.666667s73.955556 170.666667 170.666667 170.666666 170.666667-73.955556 170.666667-170.666666V625.777778c-11.377778 0-17.066667 5.688889-28.444445 5.688889zM512 290.133333c-284.444444 0-512 153.6-512 341.333334s227.555556 341.333333 512 341.333333 512-153.6 512-341.333333-227.555556-341.333333-512-341.333334z m0 625.777778c-250.311111 0-455.111111-125.155556-455.111111-284.444444s204.8-284.444444 455.111111-284.444445 455.111111 125.155556 455.111111 284.444445c0 153.6-204.8 284.444444-455.111111 284.444444z m494.933333-773.688889l-51.2-28.444444-85.333333 147.911111 51.2 28.444444 85.333333-147.911111z" p-id="55638" fill="#768fc3"></path></svg>