<?xml version="1.0" standalone="no"?><!DOCTYPE svg PUBLIC "-//W3C//DTD SVG 1.1//EN" "http://www.w3.org/Graphics/SVG/1.1/DTD/svg11.dtd"><svg t="1534751219061" class="icon" style="" viewBox="0 0 1024 1024" version="1.1" xmlns="http://www.w3.org/2000/svg" p-id="8775" xmlns:xlink="http://www.w3.org/1999/xlink" width="64" height="64"><defs><style type="text/css"></style></defs><path d="M175.2576 560C149.1904 560 128 538.5024 128 512l0 0c0-26.5024 21.1904-48 47.2576-48l673.4912 0c26.0672 0 47.2512 21.4976 47.2512 48l0 0c0 26.5024-21.184 48-47.2512 48L175.2576 560z" p-id="8776" fill="white"></path><path d="M209.5616 545.4976c-18.432 18.432-48.6144 18.2144-67.3536-0.5248l0 0c-18.7392-18.7392-18.9568-48.928-0.5248-67.3536l335.9424-335.9424c18.4384-18.432 48.6144-18.208 67.3536 0.5312l0 0c18.7392 18.7392 18.9632 48.9216 0.5248 67.3472L209.5616 545.4976z" p-id="8777" fill="white"></path><path d="M141.6768 546.3808c-18.432-18.432-18.2144-48.6144 0.5248-67.3536l0 0c18.7392-18.7392 48.928-18.9568 67.3536-0.5248l335.9424 335.936c18.4384 18.4384 18.208 48.6144-0.5312 67.3536l0 0c-18.7392 18.7392-48.9216 18.9632-67.3472 0.5248L141.6768 546.3808z" p-id="8778" fill="white"></path></svg>