<?xml version="1.0" standalone="no"?><!DOCTYPE svg PUBLIC "-//W3C//DTD SVG 1.1//EN" "http://www.w3.org/Graphics/SVG/1.1/DTD/svg11.dtd"><svg t="1534922626551" class="icon" style="" viewBox="0 0 1024 1024" version="1.1" xmlns="http://www.w3.org/2000/svg" p-id="48322" xmlns:xlink="http://www.w3.org/1999/xlink" width="32" height="32"><defs><style type="text/css"></style></defs><path d="M848.071663 664.923902c13.088086-29.447682 22.282492-60.652382 27.061332-93.146447 27.199479-44.119847 42.700521-94.76634 42.700521-148.616806 0-171.159218-156.288532-309.890886-349.042581-309.890886-42.915415 0-83.995019 6.888897-121.976052 19.476587-40.821731 0.483001-80.300884 6.148024-117.600395 16.359596 65.972551-46.667879 149.115156-74.582649 239.576447-74.582649 214.176964 0 387.822816 156.088988 387.822816 348.637352C956.613752 517.064342 915.249669 602.239234 848.071663 664.923902L848.071663 664.923902zM840.269977 520.010441c0 192.547341-173.646875 348.654748-387.823839 348.654748-27.294646 0-53.918004-2.566452-79.612199-7.404644L239.113401 952.220187l0.095167-141.021827C134.048507 748.824777 64.596715 641.727597 64.596715 520.010441c0-192.548364 173.638689-348.637352 387.849422-348.637352C666.622078 171.373089 840.269977 327.462077 840.269977 520.010441L840.269977 520.010441zM103.377974 520.010441c0 6.835685 0.305969 13.604856 0.792039 20.338211 0.14224 1.721201 0.357134 3.461845 0.520863 5.183046 0.448208 4.872984 0.969071 9.712199 1.670036 14.517645 0.340761 2.323928 0.769526 4.598738 1.149173 6.886851 0.73678 4.307096 1.523703 8.54256 2.457981 12.779048 0.50449 2.221598 1.02433 4.442172 1.579985 6.664793 1.092891 4.409426 2.281973 8.782014 3.573385 13.121855 0.573051 1.877767 1.110287 3.789303 1.722224 5.665023 1.489934 4.631484 3.125177 9.195429 4.848425 13.725606 0.593518 1.602498 1.166569 3.202948 1.794879 4.789073 2.264577 5.647627 4.687766 11.192923 7.310499 16.686031 0.159636 0.343831 0.300852 0.689708 0.465604 1.034563 8.890484 18.460444 19.769252 35.95591 32.31908 52.350298 0.214894 0.293689 0.429789 0.550539 0.645706 0.825808 20.720927 26.917046 46.0058 50.837852 74.997088 70.726831l0-0.292666c12.226462 8.404414 25.098631 16.101723 38.548968 23.024389l0 0.258896c0.198521 0.104377 0.412392 0.171915 0.611937 0.291642l-0.215918 42.863227c-0.017396 0-0.017396-0.017396-0.034792-0.017396l0.017396 2.25639-0.25685 48.889477 0.654916-0.464581 0 0.277316 46.607504-33.030277c-0.128937-0.033769-0.249687-0.086981-0.378623-0.121773l40.778752-28.999474c0.163729 0.033769 0.335644 0.085958 0.499373 0.121773l0.438998-0.311085c17.703197 4.012384 35.939537 6.800893 54.590316 8.387018l-0.240477 0.170892c2.272763 0.171915 4.572132 0.275269 6.870478 0.431835 1.585101 0.085958 3.142573 0.188288 4.701069 0.275269 6.630001 0.36225 13.294794 0.620124 20.027126 0.620124 192.754049 0 349.034395-138.76646 349.034395-309.925678S645.200186 210.103182 452.446138 210.103182C259.65832 210.103182 103.377974 348.851223 103.377974 520.010441L103.377974 520.010441z" p-id="48323" fill="#2c2c2c"></path></svg>