<?xml version="1.0" standalone="no"?><!DOCTYPE svg PUBLIC "-//W3C//DTD SVG 1.1//EN" "http://www.w3.org/Graphics/SVG/1.1/DTD/svg11.dtd"><svg t="1539597332112" class="icon" style="" viewBox="0 0 1024 1024" version="1.1" xmlns="http://www.w3.org/2000/svg" p-id="14788" xmlns:xlink="http://www.w3.org/1999/xlink" width="64" height="64"><defs><style type="text/css"></style></defs><path d="M642.3 512.1H570v-57.8h173.5v57.8H729v28.9h43.4V425.3H541.1v115.7h101.2v-28.9z m28.9 0h28.9v28.9h-28.9v-28.9z m260.2-144.6H93v-43.4h693.9V295.2H153.8l37.9-202.4h31.4V208.4c0 31.9 25.9 57.8 57.8 57.8h462.6c31.9 0 57.8-25.9 57.8-57.8v-115.6h31.4l37.9 202.4h-54.9v28.9h115.6l0.1 43.4zM760 931.3H264.4l-82.3-534.9h660.2L760 931.3zM252 92.8h520.4V208.4c0 15.9-13 28.9-28.9 28.9H280.9C265 237.3 252 224.3 252 208.4v-115.6z m708.3 202.4H900l-43.3-231.3h-689L124.3 295.2h-60.2v101.2h88.8l86.7 563.8h545.2l86.7-563.8h88.8V295.2z" fill="#ffffff" p-id="14789"></path></svg>