<?xml version="1.0" standalone="no"?><!DOCTYPE svg PUBLIC "-//W3C//DTD SVG 1.1//EN" "http://www.w3.org/Graphics/SVG/1.1/DTD/svg11.dtd"><svg t="1539597428751" class="icon" style="" viewBox="0 0 1024 1024" version="1.1" xmlns="http://www.w3.org/2000/svg" p-id="20343" xmlns:xlink="http://www.w3.org/1999/xlink" width="64" height="64"><defs><style type="text/css"></style></defs><path d="M984.283951 452.842669c-7.688099 0-13.774725 6.15007-13.774725 13.8351l0 6.089695 0 276.331559c0 44.514843-36.302811 80.757279-80.879052 80.757279L166.226371 829.856301l-31.0379 0c-7.68503 0-13.834076 6.151094-13.834076 13.836123 0 7.567349 6.149047 13.773701 13.834076 13.773701l754.441705 0c59.830667 0 108.48683-48.656163 108.48683-108.367103L998.117005 466.677768C998.117005 458.991716 991.908606 452.842669 984.283951 452.842669z" p-id="20344" fill="#ffffff"></path><path d="M937.340803 737.568409 937.340803 487.487723l0-71.65497c0-32.633235-26.546609-59.119469-59.121516-59.119469L741.828944 356.713284 617.26188 481.162668l280.704147 0 0 256.404718c0 10.937097-8.927323 19.807115-19.74674 19.807115L84.285127 757.3745c-10.819416 0-19.744693-8.870018-19.744693-19.807115L64.540434 481.162668l67.86976 0 39.020712-106.891496 10.226922-17.558911L84.285127 356.712261c-32.69361 0-59.120492 26.486234-59.120492 59.119469l0 321.735655c0 32.637328 26.427906 59.179844 59.120492 59.179844l156.373467 0 637.560694 0C910.794194 796.748253 937.340803 770.204713 937.340803 737.568409z" p-id="20345" fill="#ffffff"></path><path d="M701.093171 319.939753l77.567633-77.509305c27.727505-27.903513 27.78788-73.308633 0-101.095489L675.909605 38.582737c-27.727505-27.845185-73.250304-27.786857-101.040231 0l-77.683267 77.625962C568.605717 187.508581 661.246651 280.149515 701.093171 319.939753z" p-id="20346" fill="#ffffff"></path><path d="M436.052772 486.777549c-3.012613 2.899026-6.974855 4.550643-11.172457 4.550643-4.198625 0-8.217149-1.65264-11.233855-4.611018-6.089695-6.147-6.089695-16.138562 0-22.288632l193.742563-193.560414-61.132312-61.014632L351.628988 404.128177c-3.012613 3.012613-6.974855 4.669346-11.172457 4.669346-4.197602 0-8.159844-1.656733-11.233855-4.669346-3.134387-3.077082-4.550643-7.096628-4.550643-11.116175 0-4.079922 1.417279-8.099469 4.550643-11.115152l194.745403-194.388269c0 0-22.231327-22.170952-49.189306-49.070602L226.234069 386.92333l0.23536 0.23536c-1.477654 1.716084-2.659573 3.487428-3.369747 5.617951l-100.918457 276.627295c-2.660596 7.211239-0.886183 15.309684 4.552689 20.690228 5.379521 5.557576 13.480013 7.274684 20.692275 4.672416l276.804327-100.979856c2.127454-0.768503 3.962242-2.010797 5.615904-3.428076l0.295735 0.354064 248.545726-248.484328c-20.456914-20.514219-48.952922-48.952922-48.952922-48.952922S436.052772 486.717174 436.052772 486.777549zM263.243985 610.516758l-56.874335-56.992015 49.838082-136.62775L400.04979 560.621371 263.243985 610.516758z" p-id="20347" fill="#ffffff"></path><path d="M822.115502 667.629523 537.804201 667.629523c-7.690146 0-13.896498 6.147-13.896498 13.892405 0 7.624654 6.206352 13.893428 13.896498 13.893428l284.311301 0c7.742335 0 13.833053-6.268774 13.833053-13.893428C835.947532 673.776524 829.857836 667.629523 822.115502 667.629523z" p-id="20348" fill="#ffffff"></path><path d="M523.907703 615.128799c0 7.684006 6.206352 13.95278 13.896498 13.95278l284.311301 0c7.742335 0 13.833053-6.268774 13.833053-13.95278 0-7.742335-6.089695-13.953803-13.833053-13.953803L537.804201 601.174995C530.114055 601.176019 523.907703 607.386464 523.907703 615.128799z" p-id="20349" fill="#ffffff"></path></svg>