<?xml version="1.0" standalone="no"?><!DOCTYPE svg PUBLIC "-//W3C//DTD SVG 1.1//EN" "http://www.w3.org/Graphics/SVG/1.1/DTD/svg11.dtd"><svg t="1534316955016" class="icon" style="" viewBox="0 0 1024 1024" version="1.1" xmlns="http://www.w3.org/2000/svg" p-id="9273" xmlns:xlink="http://www.w3.org/1999/xlink" width="300" height="300"><defs><style type="text/css"></style></defs><path d="M51.2 281.6h307.2c15.36 0 25.6 10.24 25.6 25.6v307.2c0 15.36-10.24 25.6-25.6 25.6H51.2c-15.36 0-25.6-10.24-25.6-25.6V307.2c0-15.36 10.24-25.6 25.6-25.6z m409.6 0h307.2c15.36 0 25.6 10.24 25.6 25.6v307.2c0 15.36-10.24 25.6-25.6 25.6H460.8c-15.36 0-25.6-10.24-25.6-25.6V307.2c0-15.36 10.24-25.6 25.6-25.6z m409.6 0h102.4c15.36 0 25.6 10.24 25.6 25.6v307.2c0 15.36-10.24 25.6-25.6 25.6h-102.4c-15.36 0-25.6-10.24-25.6-25.6V307.2c0-15.36 10.24-25.6 25.6-25.6z" style="opacity:0.6;fill:#fff"  p-id="9274"></path><path d="M51.2 716.8h921.6c15.36 0 25.6 10.24 25.6 25.6s-10.24 25.6-25.6 25.6H51.2c-15.36 0-25.6-10.24-25.6-25.6s10.24-25.6 25.6-25.6z" fill="#fff" style="opacity:0.3" p-id="9275"></path><path d="M38.4 716.8h486.4c7.68 0 12.8 5.12 12.8 12.8v25.6c0 7.68-5.12 12.8-12.8 12.8h-486.4c-7.68 0-12.8-5.12-12.8-12.8v-25.6c0-7.68 5.12-12.8 12.8-12.8z" fill="#fff" style="opacity:0.6"  p-id="9276"></path></svg>