<svg height="32" viewBox="0 0 1024 1024" width="32" xmlns="http://www.w3.org/2000/svg"><path d="m865.777931 73.218582h-707.555862c-51.586912 0-93.406366 41.819454-93.406366 93.406366v707.554838c0 51.585889 41.819454 93.405343 93.406366 93.405343h707.555861c51.586912 0 93.406366-41.819454 93.406366-93.405343l.000001-707.554838c0-51.586912-41.819454-93.406366-93.406366-93.406366zm-24.201192 265.46814-436.041004 422.840355c-7.414877 7.188726-17.018605 10.770298-26.597775 10.770298-9.78997 0-19.569708-3.730974-27.033703-11.193947l-169.891342-169.893388c-14.944364-14.929014-14.944364-42.029232 0-56.958246 14.927991-14.929014 39.10053-17.841344 54.030567-2.913353l143.293567 143.273101 409.048233-396.642692c15.124466-14.654768 39.289841-11.419074 54.039777 3.758604 14.669095 15.153117 14.322194 42.250265-.84832 56.959268z" fill="#d13954"/></svg>