<svg height="64" viewBox="0 0 1024 1024" width="64" xmlns="http://www.w3.org/2000/svg"><path d="m512 .346901c-282.578844 0-511.653099 229.076302-511.653099 511.653099 0 282.578844 229.074256 511.653099 511.653099 511.653099 282.576797 0 511.653099-229.074256 511.653099-511.653099 0-282.57782-229.076302-511.653099-511.653099-511.653099zm280.560884 366.952486-343.70297 343.702969c-7.506974 7.506974-17.411555 11.205203-27.306926 11.159154-9.894348.045025-19.800975-3.65218-27.307949-11.159154l-162.805969-162.806992c-14.923898-14.923898-14.923898-39.3451 0-54.267974 14.923898-14.923898 39.3451-14.923898 54.268998 0l135.843898 135.843898 316.741921-316.741921c14.923898-14.923898 39.3451-14.923898 54.268998 0s14.92492 39.346122-.000001 54.27002z" fill="#d13954"/></svg>