<svg height="32" viewBox="0 0 1024 1024" width="32" xmlns="http://www.w3.org/2000/svg"><g fill="#fff"><path d="m889.78149 179.40373c-50.597933-52.179119-117.980758-81.005345-189.498991-81.005345-67.382825 0-131.968167 25.785485-181.957952 72.612899l-6.203112 5.838223-6.203112-5.838223c-49.989785-46.827414-114.575128-72.612899-181.957952-72.612899-71.639862 0-138.901057 28.826226-189.498991 81.005345-50.962822 52.544008-79.059271 122.359425-79.05927 196.675139 0 74.315714 28.096449 144.131132 78.937641 196.67514l321.953676 332.048937c14.960447 15.325336 34.664449 23.839411 55.706378 23.839411s40.867561-8.514075 55.706379-23.839411c0 0 318.426416-328.400048 321.953676-332.048937 50.962822-52.544008 78.937641-122.359425 78.937641-196.67514.12163-74.315714-27.853189-144.131132-78.816011-196.675139zm-28.461338 364.280793-321.953676 332.048937c-7.297779 7.541038-17.028151 11.676446-27.366671 11.676446s-19.947262-4.013778-27.245041-11.676446l-321.953676-332.048937c-43.300154-44.63808-67.261195-104.236608-67.261195-167.605654s23.839411-122.967573 67.261195-167.605654c43.056895-44.394821 100.344459-68.96401 161.280912-68.96401 57.165934 0 112.142535 22.014966 154.712912 61.909491l33.204893 31.137189 33.326524-31.137189c42.570377-39.894524 97.546977-61.90949 154.712911-61.909491 60.936453 0 118.224017 24.447559 161.280912 68.96401 43.300154 44.638081 67.261195 104.236608 67.261195 167.605654s-23.961041 122.967573-67.261195 167.605654z"/><path d="m296.472071 222.947143h-2.189334c-63.247417 1.216296-114.210239 53.030526-114.210239 116.399573 0 10.581779 8.635705 19.217484 19.217484 19.217484s19.217484-8.635705 19.217485-19.217484c0-43.056895 35.029338-78.086234 78.086233-78.086234 10.581779 0 19.217484-8.635705 19.217484-19.217484-.12163-10.46015-8.757335-19.095855-19.339113-19.095855z"/></g></svg>