<svg height="32" viewBox="0 0 1024 1024" width="32" xmlns="http://www.w3.org/2000/svg"><g fill="#2c2c2c"><path d="m606.631 509.9c74.924-35.426 126.978-111.495 126.978-199.705 0-121.878-99.17-221.044-221.049-221.044s-221.044 99.165-221.044 221.044c0 88.208 52.084 164.278 126.974 199.705-186.478 46.031-272.713 228.437-272.713 399.789 0 12.266 9.94 22.137 22.141 22.137 12.266 0 22.171-9.905 22.171-22.137 0-176.64 100.884-366.787 322.443-366.787 221.554 0 322.438 190.147 322.438 366.787 0 12.266 9.939 22.137 22.17 22.137 12.235 0 22.141-9.905 22.141-22.137.062-171.353-86.139-353.758-272.652-399.789zm-270.804-199.706c0-97.445 79.254-176.732 176.732-176.732s176.738 79.287 176.738 176.732c0 97.414-79.26 176.674-176.738 176.674s-176.732-79.26-176.732-176.674z"/><path d="m242.647 495.628c10.067-.957 18.193-8.633 19.782-18.636 1.559-10.003-3.885-19.846-13.187-23.828-4.457-1.91-108.692-47.85-100.41-155.772 9.493-122.899 143.35-137.774 149.149-138.381 12.138-1.177 21.058-11.978 19.881-24.147-1.147-12.201-11.822-21.087-24.147-19.973-61.066 5.833-179.187 50.746-189.093 179.095-6.086 79.827 36.826 137.199 79.29 170.842-73.812 25.703-194.767 98.751-179.795 299.855.859 11.628 10.577 20.546 22.043 20.546.574 0 1.119 0 1.693-.064 12.199-.923 21.373-11.564 20.448-23.763-17.967-241.783 185.749-264.945 194.348-265.773zm598.535-30.801c42.464-33.706 85.404-91.013 79.226-170.842-9.878-128.317-127.965-173.233-189.03-179.095-12.266-1.085-23.002 7.805-24.149 19.943-1.177 12.167 7.775 23.002 19.945 24.178 5.701.54 139.527 14.718 149.051 138.347 8.317 107.927-95.947 153.895-100.311 155.745a22.142 22.142 0 0 0 -13.257 23.729c1.499 10.003 9.653 17.776 19.722 18.763 8.667.832 212.381 23.988 194.417 265.743-.923 12.199 8.249 22.835 20.449 23.759.574.068 1.117.068 1.691.068 11.468 0 21.184-8.89 22.044-20.546 15.002-201.041-105.953-274.09-179.794-299.792z"/></g></svg>