<svg height="64" viewBox="0 0 1024 1024" width="64" xmlns="http://www.w3.org/2000/svg"><g fill="#fff"><path d="m175.2576 560c-26.0672 0-47.2576-21.4976-47.2576-48 0-26.5024 21.1904-48 47.2576-48h673.4912c26.0672 0 47.2512 21.4976 47.2512 48 0 26.5024-21.184 48-47.2512 48z"/><path d="m209.5616 545.4976c-18.432 18.432-48.6144 18.2144-67.3536-.5248-18.7392-18.7392-18.9568-48.928-.5248-67.3536l335.9424-335.9424c18.4384-18.432 48.6144-18.208 67.3536.5312 18.7392 18.7392 18.9632 48.9216.5248 67.3472z"/><path d="m141.6768 546.3808c-18.432-18.432-18.2144-48.6144.5248-67.3536 18.7392-18.7392 48.928-18.9568 67.3536-.5248l335.9424 335.936c18.4384 18.4384 18.208 48.6144-.5312 67.3536-18.7392 18.7392-48.9216 18.9632-67.3472.5248z"/></g></svg>