<svg height="64" viewBox="0 0 1024 1024" width="64" xmlns="http://www.w3.org/2000/svg"><path d="m0 512c0 282.624 229.376 512 512 512s512-229.376 512-512-229.376-512-512-512-512 229.376-512 512z" fill="#999"/><path d="m113.664 512c0 220.16 178.176 398.336 398.336 398.336s398.336-178.176 398.336-398.336-178.176-398.336-398.336-398.336-398.336 178.176-398.336 398.336z" fill="#999"/><g fill="#fff"><path d="m722.432 310.784c10.752 10.752 10.752 29.696 0 40.448l-361.984 361.984c-10.752 10.752-29.696 10.752-40.448 0s-10.752-29.696 0-40.448l361.984-361.984c11.264-10.752 29.696-10.752 40.448 0z"/><path d="m320.512 310.784c10.752-10.752 29.696-10.752 40.448 0l361.984 361.984c10.752 10.752 10.752 29.696 0 40.448s-29.696 10.752-40.448 0l-361.984-361.984c-10.752-10.752-10.752-29.696 0-40.448z"/></g></svg>