<svg height="32" viewBox="0 0 1024 1024" width="32" xmlns="http://www.w3.org/2000/svg"><path d="m848.071663 664.923902c13.088086-29.447682 22.282492-60.652382 27.061332-93.146447 27.199479-44.119847 42.700521-94.76634 42.700521-148.616806 0-171.159218-156.288532-309.890886-349.042581-309.890886-42.915415 0-83.995019 6.888897-121.976052 19.476587-40.821731.483001-80.300884 6.148024-117.600395 16.359596 65.972551-46.667879 149.115156-74.582649 239.576447-74.582649 214.176964 0 387.822816 156.088988 387.822816 348.637352.000001 93.903693-41.364082 179.078585-108.542088 241.763253zm-7.801686-144.913461c0 192.547341-173.646875 348.654748-387.823839 348.654748-27.294646 0-53.918004-2.566452-79.612199-7.404644l-133.720538 90.959642.095167-141.021827c-105.160061-62.373583-174.611853-169.470763-174.611853-291.187919 0-192.548364 173.638689-348.637352 387.849422-348.637352 214.175941 0 387.82384 156.088988 387.82384 348.637352zm-736.892003 0c0 6.835685.305969 13.604856.792039 20.338211.14224 1.721201.357134 3.461845.520863 5.183046.448208 4.872984.969071 9.712199 1.670036 14.517645.340761 2.323928.769526 4.598738 1.149173 6.886851.73678 4.307096 1.523703 8.54256 2.457981 12.779048.50449 2.221598 1.02433 4.442172 1.579985 6.664793 1.092891 4.409426 2.281973 8.782014 3.573385 13.121855.573051 1.877767 1.110287 3.789303 1.722224 5.665023 1.489934 4.631484 3.125177 9.195429 4.848425 13.725606.593518 1.602498 1.166569 3.202948 1.794879 4.789073 2.264577 5.647627 4.687766 11.192923 7.310499 16.686031.159636.343831.300852.689708.465604 1.034563 8.890484 18.460444 19.769252 35.95591 32.31908 52.350298.214894.293689.429789.550539.645706.825808 20.720927 26.917046 46.0058 50.837852 74.997088 70.726831v-.292666c12.226462 8.404414 25.098631 16.101723 38.548968 23.024389v.258896c.198521.104377.412392.171915.611937.291642l-.215918 42.863227c-.017396 0-.017396-.017396-.034792-.017396l.017396 2.25639-.25685 48.889477.654916-.464581v.277316l46.607504-33.030277c-.128937-.033769-.249687-.086981-.378623-.121773l40.778752-28.999474c.163729.033769.335644.085958.499373.121773l.438998-.311085c17.703197 4.012384 35.939537 6.800893 54.590316 8.387018l-.240477.170892c2.272763.171915 4.572132.275269 6.870478.431835 1.585101.085958 3.142573.188288 4.701069.275269 6.630001.36225 13.294794.620124 20.027126.620124 192.754049 0 349.034395-138.76646 349.034395-309.925678s-156.279323-309.907259-349.033371-309.907259c-192.787818 0-349.068164 138.748041-349.068164 309.907259z" fill="#2c2c2c"/></svg>