<?xml version="1.0" standalone="no"?><!DOCTYPE svg PUBLIC "-//W3C//DTD SVG 1.1//EN" "http://www.w3.org/Graphics/SVG/1.1/DTD/svg11.dtd"><svg t="1543391863612" class="icon" style="" viewBox="0 0 1024 1024" version="1.1" xmlns="http://www.w3.org/2000/svg" p-id="4931" xmlns:xlink="http://www.w3.org/1999/xlink" width="64" height="64"><defs><style type="text/css"></style></defs><path d="M993.26602 556.231531L537.213163 1012.284389a40.008672 40.008672 0 0 1-56.568122 0L30.735979 562.371328c-15.621481-15.621481-15.621481-40.94664 0-56.566122s40.94664-15.621481 56.566122 0L472.001328 890.506432V500.795372c0-22.091267 17.907405-39.998672 39.998672-39.998672s39.998672 17.907405 39.998672 39.998672v383.571264l384.697227-384.701226a39.878676 39.878676 0 0 1 28.285061-11.715611 39.884676 39.884676 0 0 1 28.283061 11.715611c15.619481 15.619481 15.619481 40.944641 0.001999 56.566121zM512 273.244927c22.091267 0 39.998672 17.907405 39.998672 39.998672v61.697952c0 22.091267-17.907405 39.998672-39.998672 39.998672s-39.998672-17.907405-39.998672-39.998672v-61.697952c0-22.091267 17.907405-39.998672 39.998672-39.998672zM472.001328 165.102518c0-22.091267 17.907405-39.998672 39.998672-39.998672s39.998672 17.907405 39.998672 39.998672V189.907694c0 22.091267-17.907405 39.998672-39.998672 39.998672s-39.998672-17.907405-39.998672-39.998672V165.102518z" p-id="4932" fill="#ffffff"></path><path d="M512.999967 39.998672m-39.998672 0a39.998672 39.998672 0 1 0 79.997344 0 39.998672 39.998672 0 1 0-79.997344 0Z" p-id="4933" fill="#ffffff"></path></svg>