<svg height="64" viewBox="0 0 1024 1024" width="64" xmlns="http://www.w3.org/2000/svg"><g fill="#fff"><path d="m993.26602 556.231531-456.052857 456.052858a40.008672 40.008672 0 0 1 -56.568122 0l-449.909062-449.913061c-15.621481-15.621481-15.621481-40.94664 0-56.566122s40.94664-15.621481 56.566122 0l384.699227 384.701226v-389.71106c0-22.091267 17.907405-39.998672 39.998672-39.998672s39.998672 17.907405 39.998672 39.998672v383.571264l384.697227-384.701226a39.878676 39.878676 0 0 1 28.285061-11.715611 39.884676 39.884676 0 0 1 28.283061 11.715611c15.619481 15.619481 15.619481 40.944641.001999 56.566121zm-481.26602-282.986604c22.091267 0 39.998672 17.907405 39.998672 39.998672v61.697952c0 22.091267-17.907405 39.998672-39.998672 39.998672s-39.998672-17.907405-39.998672-39.998672v-61.697952c0-22.091267 17.907405-39.998672 39.998672-39.998672zm-39.998672-108.142409c0-22.091267 17.907405-39.998672 39.998672-39.998672s39.998672 17.907405 39.998672 39.998672v24.805176c0 22.091267-17.907405 39.998672-39.998672 39.998672s-39.998672-17.907405-39.998672-39.998672z"/><path d="m473.001295 39.998672a39.998672 39.998672 0 1 0 79.997344 0 39.998672 39.998672 0 1 0 -79.997344 0z"/></g></svg>