<svg height="64" viewBox="0 0 1024 1024" width="64" xmlns="http://www.w3.org/2000/svg"><g fill="#fff"><path d="m984.283951 452.842669c-7.688099 0-13.774725 6.15007-13.774725 13.8351v6.089695 276.331559c0 44.514843-36.302811 80.757279-80.879052 80.757279l-723.403803-.000001h-31.0379c-7.68503 0-13.834076 6.151094-13.834076 13.836123 0 7.567349 6.149047 13.773701 13.834076 13.773701h754.441705c59.830667 0 108.48683-48.656163 108.48683-108.367103l-.000001-282.421254c0-7.686052-6.208399-13.835099-13.833054-13.835099z"/><path d="m937.340803 737.568409v-250.080686-71.65497c0-32.633235-26.546609-59.119469-59.121516-59.119469h-136.390343l-124.567064 124.449384h280.704147v256.404718c0 10.937097-8.927323 19.807115-19.74674 19.807115l-793.93416-.000001c-10.819416 0-19.744693-8.870018-19.744693-19.807115v-256.404717h67.86976l39.020712-106.891496 10.226922-17.558911h-97.372701c-32.69361 0-59.120492 26.486234-59.120492 59.119469v321.735655c0 32.637328 26.427906 59.179844 59.120492 59.179844h156.373467 637.560694c32.574906.001024 59.121515-26.542516 59.121515-59.17882z"/><path d="m701.093171 319.939753 77.567633-77.509305c27.727505-27.903513 27.78788-73.308633 0-101.095489l-102.751199-102.752222c-27.727505-27.845185-73.250304-27.786857-101.040231 0l-77.683267 77.625962c71.41961 71.299882 164.060544 163.940816 203.907064 203.731054z"/><path d="m436.052772 486.777549c-3.012613 2.899026-6.974855 4.550643-11.172457 4.550643-4.198625 0-8.217149-1.65264-11.233855-4.611018-6.089695-6.147-6.089695-16.138562 0-22.288632l193.742563-193.560414-61.132312-61.014632-194.627723 194.274681c-3.012613 3.012613-6.974855 4.669346-11.172457 4.669346s-8.159844-1.656733-11.233855-4.669346c-3.134387-3.077082-4.550643-7.096628-4.550643-11.116175 0-4.079922 1.417279-8.099469 4.550643-11.115152l194.745403-194.388269s-22.231327-22.170952-49.189306-49.070602l-248.544704 248.485351.23536.23536c-1.477654 1.716084-2.659573 3.487428-3.369747 5.617951l-100.918457 276.627295c-2.660596 7.211239-.886183 15.309684 4.552689 20.690228 5.379521 5.557576 13.480013 7.274684 20.692275 4.672416l276.804327-100.979856c2.127454-.768503 3.962242-2.010797 5.615904-3.428076l.295735.354064 248.545726-248.484328c-20.456914-20.514219-48.952922-48.952922-48.952922-48.952922s-193.682187 193.441712-193.682187 193.502087zm-172.808787 123.739209-56.874335-56.992015 49.838082-136.62775 143.842058 143.724378z"/><path d="m822.115502 667.629523h-284.311301c-7.690146 0-13.896498 6.147-13.896498 13.892405 0 7.624654 6.206352 13.893428 13.896498 13.893428h284.311301c7.742335 0 13.833053-6.268774 13.833053-13.893428-.001023-7.745404-6.090719-13.892405-13.833053-13.892405z"/><path d="m523.907703 615.128799c0 7.684006 6.206352 13.95278 13.896498 13.95278h284.311301c7.742335 0 13.833053-6.268774 13.833053-13.95278 0-7.742335-6.089695-13.953803-13.833053-13.953803l-284.311301-.000001c-7.690146.001024-13.896498 6.211469-13.896498 13.953804z"/></g></svg>