<svg height="64" viewBox="0 0 1024 1024" width="64" xmlns="http://www.w3.org/2000/svg"><g fill="#fff"><path d="m706.559974 430.079943a27.306663 27.306663 0 0 1 -27.306663-27.306663v-220.774371h-105.813319a27.306663 27.306663 0 1 1 0-54.613326h130.525849a30.037329 30.037329 0 0 1 30.037329 30.037329v245.759968a27.306663 27.306663 0 0 1 -27.443196 26.897063zm-2.730666 466.534337h-130.389316a27.306663 27.306663 0 0 1 0-54.613326h105.949852v-216.268771a27.306663 27.306663 0 0 1 54.613326 0v240.844768a30.037329 30.037329 0 0 1 -30.173862 30.037329z"/><path d="m573.439992 896.61428a27.306663 27.306663 0 0 1 -27.306663-27.306663v-714.615371a27.306663 27.306663 0 0 1 54.613326 0v714.615371a27.306663 27.306663 0 0 1 -27.306663 27.306663z"/><path d="m201.386708 184.729575a27.306663 27.306663 0 0 1 -27.306663-27.306663v-4.915199a30.310396 30.310396 0 0 1 20.070397-29.627729l367.957285-121.378118a29.218129 29.218129 0 0 1 26.077863 3.959467 30.446929 30.446929 0 0 1 12.561065 24.71253v124.518383a27.306663 27.306663 0 0 1 -54.613326 0v-90.385055l-320.853291 106.359453a27.306663 27.306663 0 0 1 -23.89333 14.062931zm369.868751 839.270288a29.218129 29.218129 0 0 1 -9.284266-1.501866l-367.684217-121.378117a30.446929 30.446929 0 0 1 -20.206931-29.21813v-4.915199a27.306663 27.306663 0 0 1 51.199993-13.653331l320.853291 106.359452v-90.385055a27.306663 27.306663 0 0 1 54.613326 0v124.518384a30.446929 30.446929 0 0 1 -12.424532 24.71253 29.081596 29.081596 0 0 1 -17.066664 5.461332z"/><path d="m201.386708 893.883614a27.306663 27.306663 0 0 1 -27.306663-27.306663v-709.154039a27.306663 27.306663 0 0 1 54.613326 0v709.154039a27.306663 27.306663 0 0 1 -27.306663 27.306663zm262.826632-354.577019h-50.380794a27.306663 27.306663 0 1 1 0-54.613326h50.380794a27.306663 27.306663 0 0 1 0 54.613326zm447.965807 0h-256.819166a27.306663 27.306663 0 0 1 0-54.613326h256.819166a27.306663 27.306663 0 0 1 0 54.613326z"/><path d="m917.777013 539.306595a27.306663 27.306663 0 0 1 -19.251198-8.055466l-103.492253-103.492253a27.306663 27.306663 0 0 1 38.638928-38.638928l103.492253 103.492253a27.306663 27.306663 0 0 1 -19.251197 46.55786z"/><path d="m814.28476 642.798848a27.306663 27.306663 0 0 1 -19.251198-46.557861l103.492253-103.492253a27.306663 27.306663 0 1 1 38.638928 38.638928l-103.628786 103.492253a27.306663 27.306663 0 0 1 -19.251197 7.918933z"/></g></svg>