<?xml version="1.0" standalone="no"?><!DOCTYPE svg PUBLIC "-//W3C//DTD SVG 1.1//EN" "http://www.w3.org/Graphics/SVG/1.1/DTD/svg11.dtd"><svg t="1538991384315" class="icon" style="" viewBox="0 0 1024 1024" version="1.1" xmlns="http://www.w3.org/2000/svg" p-id="6623" xmlns:xlink="http://www.w3.org/1999/xlink" width="64" height="64"><defs><style type="text/css"></style></defs><path d="M255.3812 714.44737779C316.38173334 774.30017779 399.97213333 811.21111112 492.18333334 811.21111112c128.864 0 240.89173333-72.0864 297.95733334-178.13333333C815.77266668 585.44471111 830.31666668 530.95937779 830.31666668 473.07777779c0-8.97493333-0.34986667-17.86773333-1.0368-26.66666668l-573.89866668 268.03626668z" fill="#000000" p-id="6624"></path><path d="M511 859c-46.832 0-92.278-9.179-135.077-27.281-41.324-17.479-78.431-42.494-110.289-74.353-31.858-31.858-56.874-68.965-74.353-110.289C173.179 604.278 164 558.831 164 512c0-40.342 6.873-79.884 20.429-117.528 13.095-36.364 32.102-70.117 56.492-100.32 10.41-12.891 29.297-14.902 42.188-4.492 12.891 10.409 14.902 29.297 4.492 42.188C245.993 383.372 224 445.667 224 512c0 158.252 128.748 287 287 287s287-128.748 287-287c0-66.332-21.992-128.628-63.6-180.152-10.409-12.89-8.398-31.778 4.492-42.188 12.891-10.41 31.779-8.397 42.188 4.493 24.391 30.203 43.396 63.956 56.491 100.32C851.127 432.116 858 471.658 858 512c0 46.831-9.179 92.278-27.281 135.077-17.479 41.324-42.494 78.431-74.353 110.289s-68.965 56.874-110.289 74.353C603.278 849.821 557.831 859 511 859z" fill="#000000" p-id="6625"></path><path d="M511 521c-16.5 0-30-13.5-30-30V183c0-16.5 13.5-30 30-30s30 13.5 30 30v308c0 16.5-13.5 30-30 30z" fill="#000000" p-id="6626"></path></svg>