<svg height="64" viewBox="0 0 1024 1024" width="64" xmlns="http://www.w3.org/2000/svg"><path d="m255.3812 714.44737779c61.00053334 59.8528 144.59093333 96.76373333 236.80213334 96.76373333 128.864 0 240.89173333-72.0864 297.95733334-178.13333333 25.632-47.63306668 40.176-102.1184 40.176-160 0-8.97493333-.34986667-17.86773333-1.0368-26.66666668z"/><path d="m511 859c-46.832 0-92.278-9.179-135.077-27.281-41.324-17.479-78.431-42.494-110.289-74.353-31.858-31.858-56.874-68.965-74.353-110.289-18.102-42.799-27.281-88.246-27.281-135.077 0-40.342 6.873-79.884 20.429-117.528 13.095-36.364 32.102-70.117 56.492-100.32 10.41-12.891 29.297-14.902 42.188-4.492 12.891 10.409 14.902 29.297 4.492 42.188-41.608 51.524-63.601 113.819-63.601 180.152 0 158.252 128.748 287 287 287s287-128.748 287-287c0-66.332-21.992-128.628-63.6-180.152-10.409-12.89-8.398-31.778 4.492-42.188 12.891-10.41 31.779-8.397 42.188 4.493 24.391 30.203 43.396 63.956 56.491 100.32 13.556 37.643 20.429 77.185 20.429 117.527 0 46.831-9.179 92.278-27.281 135.077-17.479 41.324-42.494 78.431-74.353 110.289s-68.965 56.874-110.289 74.353c-42.799 18.102-88.246 27.281-135.077 27.281z"/><path d="m511 521c-16.5 0-30-13.5-30-30v-308c0-16.5 13.5-30 30-30s30 13.5 30 30v308c0 16.5-13.5 30-30 30z"/></svg>