<svg height="32" viewBox="0 0 1024 1024" width="32" xmlns="http://www.w3.org/2000/svg"><path d="m814.81 726.693-88.117 88.118h-49.748l137.866-137.866v49.748zm0 64.758v23.36h-23.359l23.36-23.36zm0-179.264-202.622 202.624h-49.748l216.293-216.294h36.078v13.67zm-100.835-13.67-216.295 216.294h-49.747l216.293-216.294h49.748zm-114.55 0-216.292 216.294h-49.747l216.293-216.294h49.748zm-114.505 0-216.293 216.294h-49.748l216.294-216.294zm-114.506 0-161.224 161.225v-49.271l111.954-111.954h49.315zm-114.03 0-47.195 47.196v-47.196h47.196zm558.427-326.04-109.748 109.747h-49.747l159.495-159.495zm0 64.758v44.989h-44.99zm-51.219-128.046-173.034 173.035h-49.748l173.035-173.035zm-114.505 0-173.035 173.035h-49.747l173.034-173.035zm-114.592 0-173.035 173.035h-49.748l173.035-173.035zm-114.463 0-173.035 173.035h-37.807v-11.896l161.139-161.139h49.747zm-114.506 0-96.337 96.337v-49.271l47.066-47.066h49.315zm-182.854 259.552h778.656v43.259h-778.656z" fill="#030000"/></svg>