<svg height="32" viewBox="0 0 1024 1024" width="32" xmlns="http://www.w3.org/2000/svg"><path d="m841.71335 65.290005h-659.427724c-64.511269 0-116.995621 52.484352-116.995621 116.995621v659.427724c0 64.511269 52.484352 116.995621 116.995621 116.995621h659.427724c64.511269 0 116.995621-52.484352 116.995621-116.995621v-659.427724c0-64.511269-52.483328-116.995621-116.995621-116.995621zm-659.427724 42.543956h659.427724c41.051975 0 74.451666 33.398668 74.451666 74.451666v136.557142c-150.09446 5.26184-290.370297 66.084091-396.978337 172.692131-49.960879 49.961902-89.841168 107.331517-118.694309 169.625282-83.496669-70.835302-204.372667-75.376735-292.65841-13.617136l.000001-465.25742c0-41.052998 33.398667-74.451665 74.451665-74.451665zm-74.451665 733.879389v-139.085732c76.54228-74.311473 198.833511-74.234725 275.272437.24457-24.303522 65.298192-37.026288 135.112234-37.026288 206.91149 0 2.223644.343831 4.366448.977257 6.381337l-164.771741.000001c-41.052998 0-74.451665-33.398668-74.451665-74.451666zm733.879389 74.451666h-454.066543c.633427-2.01489.977257-4.157693.977257-6.381337 0-146.71755 57.053414-284.572244 160.647817-388.166647 98.570993-98.570993 228.166583-154.963351 366.894158-160.204725v480.301043c-.001023 41.052998-33.399691 74.451666-74.452689 74.451666zm-529.315364-502.706333c60.8376 0 110.332874-49.494251 110.332874-110.332874s-49.494251-110.332874-110.332874-110.332874-110.332874 49.494251-110.332874 110.332874 49.494251 110.332874 110.332874 110.332874zm0-178.12077c37.378306 0 67.788919 30.40959 67.788919 67.788919s-30.40959 67.788919-67.788919 67.788919-67.788919-30.40959-67.788919-67.788919 30.40959-67.788919 67.788919-67.788919z" fill="#030000"/></svg>