<svg height="64" viewBox="0 0 1024 1024" width="64" xmlns="http://www.w3.org/2000/svg"><path d="m949.408141 435.168124-77.728292-67.567885v-87.451748c0-17.253966-13.96199-31.233352-31.210839-31.233352s-31.210839 13.980409-31.210839 31.233352v33.189913l-276.290627-240.175081c-.01535-.013303-.031722-.025583-.048095-.038886-2.004657-1.741667-4.186346-3.190669-6.487761-4.339842-.002047-.001023-.005117-.00307-.007163-.004093-.421602-.210801-.848321-.409322-1.278109-.599657-.046049-.020466-.092098-.042979-.13917-.063445-.381693-.166799-.76748-.322341-1.154289-.473791-.094144-.036839-.187265-.077771-.282433-.113587-.341784-.12996-.686638-.24764-1.032516-.36532-.140193-.048095-.278339-.099261-.418532-.145309-.309038-.100284-.621147-.189312-.933255-.279363-.176009-.051165-.352017-.107447-.529049-.155543-.298805-.080841-.599657-.150426-.900509-.223081-.188288-.045025-.375553-.095167-.563842-.1361-.315178-.069585-.633427-.12689-.950651-.186242-.173962-.032746-.346901-.070608-.51984-.100284-.364297-.061398-.729617-.11154-1.094938-.160659-.125867-.016373-.25071-.038886-.3776-.054235-.452301-.055259-.906649-.098237-1.360997-.13303-.036839-.00307-.074701-.008186-.11154-.010233-4.9088-.363274-9.899464.430812-14.536065 2.407839-.052189.021489-.104377.041956-.155543.064468-.330528.143263-.656963.296759-.983397.452301-.149403.070608-.299829.137123-.448208.210801-.237407.11768-.470721.243547-.706081.367367-.234337.122797-.468674.243547-.699941.372483-.157589.088004-.313132.183172-.468674.274246-.303922.177032-.607844.355087-.906649.542352-.096191.060375-.189312.124843-.284479.186242-.352017.226151-.701988.458441-1.045819.699941-.060375.042979-.119727.088004-.180102.130983-.370437.264013-.737804.536212-1.098008.818645-.055259.042979-.10847.088004-.162706.130983-.356111.282433-.708128.571005-1.054005.870834-.021489.01842-.042979.034792-.064468.053212l-286.475596 249.023613v-31.627325c0-17.253966-13.96199-31.233352-31.210839-31.233352s-31.210839 13.980409-31.210839 31.233352v83.289961c0 .844228.042979 1.677199.10847 2.50403l-67.661006 58.814524c-13.019525 11.31572-14.396895 31.04097-3.080152 44.054355 6.176676 7.106862 14.854313 10.746762 23.588231 10.746762 7.264451 0 14.564717-2.521426 20.476357-7.66661l395.9581-344.191086 395.9581 344.191086c5.907547 5.14416 13.20679 7.66661 20.476357 7.66661 8.723685 0 17.406438-3.6399 23.577998-10.746762 11.326978-13.014407 9.943468-32.738634-3.08015-44.054354zm-103.774505 49.503461c-17.248849 0-31.233352 13.980409-31.233352 31.233352l.000001 310.295091c0 39.133276-26.928303 72.197322-58.807361 72.197322l-486.238266.000001c-31.879058 0-58.807361-33.064047-58.807361-72.197322v-310.294069c0-17.253966-13.985526-31.233352-31.233352-31.233352-17.248849 0-31.233352 13.980409-31.233352 31.233352v310.294068c0 74.251098 54.405097 134.665049 121.275087 134.665049h486.237244c66.86999 0 121.275087-60.413951 121.275087-134.665049v-310.294068c0-17.253966-13.985525-31.234375-31.234375-31.234375zm-455.04687-78.887698c-17.248849 0-31.233352 13.980409-31.233352 31.233352v30.470989c0 17.253966 13.985526 31.233352 31.233352 31.233352 17.248849 0 31.233352-13.980409 31.233352-31.233352v-30.470989c0-17.252943-13.984503-31.233352-31.233352-31.233352zm243.774049 0c-17.248849 0-31.233352 13.980409-31.233352 31.233352v30.470989c0 17.253966 13.985526 31.233352 31.233352 31.233352 17.248849 0 31.233352-13.980409 31.233352-31.233352v-30.470989c.001023-17.252943-13.984502-31.233352-31.233352-31.233352zm-45.090964 141.060712c-14.539134-9.31311-33.841759-5.053086-43.149752 9.455349-.121773.193405-13.379729 19.449981-33.968649 19.449981-20.008706 0-32.454156-18.138102-33.276894-19.378349-9.175987-14.417361-28.269857-18.809391-42.834574-9.750061-14.650675 9.099239-19.145036 28.356838-10.044774 43.007513 11.214413 18.047028 41.980113 48.589648 86.157265 48.589648 43.958164 0 75.100442-30.308283 86.573751-48.223305 9.301853-14.529925 5.067412-33.847899-9.456373-43.150776z" fill="#fff"/></svg>