<svg height="32" viewBox="0 0 1024 1024" width="32" xmlns="http://www.w3.org/2000/svg"><path d="m943.616 251.2-170.112-170.112a54.4 54.4 0 0 0 -77.056.192l-244.096 244.032a54.528 54.528 0 0 0 -.192 77.12l19.776 35.264 65.856-65.856c-10.496-10.56-10.56-22.4 0-32.96l197.632-197.568 148.16 148.16-197.568 197.568c-10.56 10.56-22.4 10.56-32.96 0l-65.792 65.92 35.008 19.584a54.592 54.592 0 0 0 77.12-.192l244.032-244.032a54.592 54.592 0 0 0 .192-77.12zm-389.312 334.656-49.408 49.408-16.448 16.512c11.072 11.072 11.136 21.76 0 32.896l-197.568 197.632-148.288-148.224 197.632-197.568c11.136-11.136 21.824-11.072 32.896 0l65.856-65.856-35.776-19.328a54.464 54.464 0 0 0 -77.056.192l-244.096 244.032a54.528 54.528 0 0 0 -.192 77.056l170.112 170.112a54.464 54.464 0 0 0 77.056-.192l244.096-244.032a54.528 54.528 0 0 0 .192-77.056zm-197.632 131.712 378.752-378.688-49.408-49.408-378.752 378.688z" fill="#030000"/></svg>