<svg height="32" viewBox="0 0 1024 1024" width="32" xmlns="http://www.w3.org/2000/svg"><g fill="#768fc3"><path d="m674 649.9c-9.1-1.2-17.5 5.2-18.7 14.3-1.3 9.2 5 17.7 14.1 19 127.9 18.5 175.6 53.2 175.6 70.7 0 33.1-129.3 81.2-332 81.2s-332-48.1-332-81.2c0-17.4 47.2-51.8 173.9-70.3 9-1.3 15.3-9.9 14-19.1s-9.7-15.6-18.7-14.3c-60.8 8.9-202.3 36.8-202.3 103.7 0 75.4 183.7 114.9 365.1 114.9s365.1-39.5 365.1-114.9c0-67.3-142.7-95.1-204.1-104z"/><path d="m501.7 745.9 11.5 10.9 11.3-11c8.4-8.2 206.3-203.4 206.3-385.3 0-122.3-97.7-221.8-217.7-221.8-120.1 0-217.7 99.5-217.7 221.8-.1 186.7 197.9 377.4 206.3 385.4zm11.3-573.6c101.8 0 184.6 84.4 184.6 188.1 0 143.7-143 305.2-184.8 349.3-41.8-43.2-184.4-201.5-184.4-349.2 0-103.8 82.8-188.2 184.6-188.2zm0 0"/><path d="m512.3 242.2c-58.6 0-106.1 47.5-106.1 106.1s47.5 106.1 106.1 106.1 106.1-47.5 106.1-106.1-47.5-106.1-106.1-106.1zm0 179.6c-19.5 0-38.2-7.7-51.9-21.5a73.428 73.428 0 0 1 -21.5-51.9c0-26.2 14-50.5 36.7-63.6s50.7-13.1 73.5 0c22.7 13.1 36.7 37.4 36.7 63.6 0 40.5-32.9 73.4-73.5 73.4z"/></g></svg>