<svg height="128" viewBox="0 0 1567 1024" width="195.875" xmlns="http://www.w3.org/2000/svg"><path d="m156.662278 699.758173h21.097186a10.444152 10.444152 0 0 1 10.235269 10.444152c0 5.765172-4.490985 10.444152-10.235269 10.444152h-21.097186v21.097186a10.444152 10.444152 0 0 1 -10.444152 10.235269 10.277045 10.277045 0 0 1 -10.444152-10.235269v-21.097186h-21.097187a10.444152 10.444152 0 0 1 -10.235269-10.444152c0-5.765172 4.490985-10.444152 10.235269-10.444152h21.097187v-21.097187a10.444152 10.444152 0 0 1 10.444152-10.235269c5.765172 0 10.444152 4.490985 10.444152 10.235269zm1378.628042-83.553215v-21.097186a10.277045 10.277045 0 0 0 -10.444152-10.235269 10.444152 10.444152 0 0 0 -10.444152 10.235269v21.097186h-21.097186a10.277045 10.277045 0 0 0 -10.235269 10.444152c0 5.598065 4.595427 10.444152 10.235269 10.444152h21.097186v21.097187c0 5.744284 4.67898 10.235269 10.444152 10.235268a10.444152 10.444152 0 0 0 10.444152-10.235268v-21.097187h21.097187c5.744284 0 10.235269-4.67898 10.235268-10.444152a10.444152 10.444152 0 0 0 -10.235268-10.444152zm-758.830296 344.657011h-525.863045a20.80475 20.80475 0 0 1 -20.825639-20.888304c0-11.530344 9.462402-20.888304 20.825639-20.888303h94.728457a83.010119 83.010119 0 0 1 -11.112577-41.672166v-605.96969a83.49055 83.49055 0 0 1 83.636768-83.448773h62.581357v-20.992745a83.49055 83.49055 0 0 1 83.636768-83.448773h501.152182a83.448773 83.448773 0 0 1 83.636768 83.448773v605.969689c0 15.185797-4.052331 29.410732-11.133466 41.672166h115.554096c11.551232 0 20.909192 9.274407 20.909192 20.888304 0 11.530344-9.295295 20.888304-20.888304 20.888304h-250.659644v20.992745c0 15.185797-4.052331 29.410732-11.133466 41.672166h11.196131c11.488567 0 20.825639 9.274407 20.825639 20.888303 0 11.530344-9.462402 20.888304-20.825639 20.888304h-109.893365c9.545955 16.000441 7.478013 36.972297-6.41271 50.863019a41.672166 41.672166 0 0 1 -59.072122 0zm76.367638-41.776607h66.424806c22.977134 0 41.609501-18.59059 41.609501-41.881049v-606.742557c0-22.559368-18.047494-40.690416-40.314426-40.690416h-504.243651c-22.266932 0-40.314426 18.214601-40.314426 40.690416v606.742557c0 23.123352 18.799473 41.881049 41.588613 41.881049h317.084449l-10.736588-10.757477a41.693054 41.693054 0 0 1 -10.861918-40.377091l-19.718558-19.739447a146.259902 146.259902 0 0 1 -190.981761-220.517822 146.218126 146.218126 0 0 1 220.517822 190.981761l19.739447 19.739447a41.630389 41.630389 0 0 1 40.377091 10.841029zm149.810914-104.441519h62.852906a41.797496 41.797496 0 0 0 41.588613-41.776607v-605.760807c0-23.14424-18.632367-41.776607-41.588613-41.776607h-501.716166a41.797496 41.797496 0 0 0 -41.567724 41.776607v20.888304h396.794216a83.448773 83.448773 0 0 1 83.636768 83.448773zm-736.312704-767.64516h31.123572c8.773088 0 15.875111 6.955805 15.875111 15.666228 0 8.647758-7.102023 15.666228-15.875111 15.666228h-31.123572v31.123572c0 8.773088-6.955805 15.875111-15.666228 15.875111a15.770669 15.770669 0 0 1 -15.666228-15.875111v-31.123572h-31.123572a15.728893 15.728893 0 0 1 -15.875111-15.666228c0-8.647758 7.102023-15.666228 15.875111-15.666228h31.123572v-31.123572c0-8.773088 6.955805-15.875111 15.666228-15.875111 8.647758 0 15.666228 7.102023 15.666228 15.875111zm-245.437568 892.974982c0-11.530344 9.462402-20.888304 20.825638-20.888303h125.455152c11.488567 0 20.825639 9.274407 20.825639 20.888303 0 11.530344-9.462402 20.888304-20.825639 20.888304h-125.455152a20.80475 20.80475 0 0 1 -20.825638-20.888304zm658.733544-135.021995a104.441518 104.441518 0 1 0 -147.722083-147.722083 104.441518 104.441518 0 0 0 147.722083 147.722083zm-220.079167-491.627115a20.888304 20.888304 0 0 1 20.867415-20.888304h229.792229a20.888304 20.888304 0 1 1 0 41.776608h-229.771341a20.825639 20.825639 0 0 1 -20.888303-20.888304zm0 104.441518c0-11.530344 9.295295-20.888304 20.742085-20.888303h334.505295c11.44679 0 20.742086 9.274407 20.742086 20.888303 0 11.530344-9.295295 20.888304-20.742086 20.888304h-334.505295a20.762974 20.762974 0 0 1 -20.742085-20.888304zm0 104.441519c0-11.530344 9.316183-20.888304 20.846527-20.888304h146.301679c11.509455 0 20.846527 9.274407 20.846527 20.888304 0 11.530344-9.316183 20.888304-20.846527 20.888303h-146.301679a20.80475 20.80475 0 0 1 -20.846527-20.888303zm-396.87777-125.329822a62.664911 62.664911 0 1 1 0-125.329822 62.664911 62.664911 0 0 1 0 125.329822zm0-31.332456a31.332456 31.332456 0 1 0 0-62.664911 31.332456 31.332456 0 0 0 0 62.664911zm1295.074828-93.997366a62.664911 62.664911 0 1 1 0-125.329822 62.664911 62.664911 0 0 1 0 125.329822zm0-31.332456a31.332456 31.332456 0 1 0 0-62.664911 31.332456 31.332456 0 0 0 0 62.664911z" fill="#cdcdcd"/></svg>