<svg height="64" viewBox="0 0 1024 1024" width="64" xmlns="http://www.w3.org/2000/svg"><path d="m989.22102 683.880869c-22.108255-124.734231-114.976574-206.44607-114.976574-206.44607 13.271776-113.236573-35.380032-133.331885-35.380032-133.331885-10.235304-350.354435-320.501467-344.247371-327.052061-344.076782-6.516477-.170589-316.850875-6.277653-327.017943 344.076782 0 0-48.651809 20.095312-35.380032 133.331885 0 0-92.86832 81.711839-114.976575 206.44607 0 0-11.804717 210.744896 106.140096 25.792964 0 0 26.509436 70.248299 75.161245 133.331885 0 0-86.965962 28.692968-79.596543 103.240094 0 0-2.968238 83.110663 185.702521 77.413011 0 0 132.649532-10.030597 172.464862-64.516529h17.365898.307059 17.365898c39.81533 54.485932 172.464862 64.516529 172.464862 64.516529 188.602524 5.697652 185.702521-77.413011 185.702521-77.413011 7.335301-74.547126-79.596542-103.240094-79.596542-103.240094 48.651808-63.083586 75.161244-133.331885 75.161244-133.331885 117.876577 184.951932 106.140096-25.792964 106.140096-25.792964z" fill="#fff"/></svg>