<svg height="64" viewBox="0 0 1024 1024" width="64" xmlns="http://www.w3.org/2000/svg"><g fill="#999"><path d="m240.776 240.872a302.952 302.952 0 0 0 -83.448 271.128c18.048-81.912 60.48-161.952 126.576-228.096 66.144-66.168 146.184-108.576 228.096-126.624-95.28-17.952-197.52 9.864-271.224 83.592z"/><path d="m959.6 802.736-114.096-114.096a110.64 110.64 0 0 0 -87-31.992c107.304-155.208 91.8-369.744-46.392-507.96-155.568-155.616-407.856-155.616-563.472 0-155.568 155.616-155.568 407.928 0 563.544 138.192 138.216 352.56 153.6 507.864 46.296-2.4 31.2 8.304 63.312 31.992 87l114.096 114.12c43.2 43.104 113.784 43.104 156.888 0 43.32-43.104 43.32-113.712.12-156.912zm-293.76-136.896c-130.008 130.008-340.68 130.008-470.64 0-130.008-130.008-130.008-340.728 0-470.736 129.96-130.008 340.632-130.008 470.64 0 129.984 129.912 129.984 340.728 0 470.736z"/></g></svg>