<svg height="32" viewBox="0 0 1024 1024" width="32" xmlns="http://www.w3.org/2000/svg"><path d="m63.29814 120.015398v783.435039h895.355061v-783.435039zm335.75802 503.636518v-167.878498h223.840044v167.879522l-223.840044-.000001zm223.840044 55.959499v167.881568l-223.840044.000001v-167.881569zm0-447.678042v167.881568h-223.840044v-167.881568zm-279.799544 0v167.881568h-223.839021v-167.881568zm-223.839021 223.840045h223.840044v167.879522l-223.840044-.000001zm559.598065 0h223.840044v167.879522l-223.840044-.000001zm0-55.958477v-167.881568h223.840044v167.881568zm-559.598065 279.796474h223.840044v167.881568l-223.840044.000001zm559.598065 167.881569v-167.881569h223.840044v167.881568zm0 0" fill="#030000"/></svg>