<svg height="64" viewBox="0 0 1024 1024" width="64" xmlns="http://www.w3.org/2000/svg"><path d="m163.328 566.784v-151.04c50.176-15.36 87.04-61.952 87.04-117.76 0-54.272-35.328-100.352-83.968-116.736v-140.288c0-19.456-15.872-35.84-35.84-35.84s-35.84 15.872-35.84 35.84v138.752c-51.712 14.336-89.6 61.952-89.6 118.272 0 55.296 36.864 102.4 87.04 117.76v151.04c-50.176 15.36-87.04 61.952-87.04 117.76 0 53.76 34.304 99.328 81.92 115.712v182.784c0 19.456 15.872 35.84 35.84 35.84s35.84-15.872 35.84-35.84v-180.224c52.736-13.824 92.16-61.44 92.16-118.784 0-55.296-36.864-101.888-87.552-117.248zm-87.04-268.8c0-28.16 23.04-51.712 51.712-51.712s51.712 23.04 51.712 51.712-23.04 51.712-51.712 51.712-51.712-23.04-51.712-51.712zm51.712 437.76c-28.16 0-51.712-23.04-51.712-51.712s23.04-51.712 51.712-51.712 51.712 23.04 51.712 51.712-23.552 51.712-51.712 51.712zm207.872-592.384v71.168h647.168c19.456 0 35.84-15.872 35.84-35.84s-15.872-35.84-35.84-35.84h-647.168zm466.944 216.576h-467.456v71.168h467.456c19.456 0 35.84-15.872 35.84-35.84s-15.872-35.328-35.84-35.328zm-466.944 299.008h647.168c19.456 0 35.84-15.872 35.84-35.84s-15.872-35.84-35.84-35.84h-647.68v71.68zm0 221.696h467.456c19.456 0 35.84-15.872 35.84-35.84s-15.872-35.84-35.84-35.84h-467.456z" fill="#fff"/></svg>