<?xml version="1.0" standalone="no"?><!DOCTYPE svg PUBLIC "-//W3C//DTD SVG 1.1//EN" "http://www.w3.org/Graphics/SVG/1.1/DTD/svg11.dtd"><svg t="1543568526952" class="icon" style="" viewBox="0 0 1024 1024" version="1.1" xmlns="http://www.w3.org/2000/svg" p-id="3268" xmlns:xlink="http://www.w3.org/1999/xlink" width="64" height="64"><defs><style type="text/css"></style></defs><path d="M163.328 566.784V415.744c50.176-15.36 87.04-61.952 87.04-117.76 0-54.272-35.328-100.352-83.968-116.736V40.96c0-19.456-15.872-35.84-35.84-35.84s-35.84 15.872-35.84 35.84V179.712C43.008 194.048 5.12 241.664 5.12 297.984c0 55.296 36.864 102.4 87.04 117.76v151.04c-50.176 15.36-87.04 61.952-87.04 117.76 0 53.76 34.304 99.328 81.92 115.712V983.04c0 19.456 15.872 35.84 35.84 35.84s35.84-15.872 35.84-35.84v-180.224c52.736-13.824 92.16-61.44 92.16-118.784 0-55.296-36.864-101.888-87.552-117.248z m-87.04-268.8c0-28.16 23.04-51.712 51.712-51.712s51.712 23.04 51.712 51.712-23.04 51.712-51.712 51.712-51.712-23.04-51.712-51.712z m51.712 437.76c-28.16 0-51.712-23.04-51.712-51.712s23.04-51.712 51.712-51.712 51.712 23.04 51.712 51.712-23.552 51.712-51.712 51.712zM335.872 143.36v71.168H983.04c19.456 0 35.84-15.872 35.84-35.84s-15.872-35.84-35.84-35.84h-647.168z m466.944 216.576h-467.456v71.168h467.456c19.456 0 35.84-15.872 35.84-35.84s-15.872-35.328-35.84-35.328z m-466.944 299.008H983.04c19.456 0 35.84-15.872 35.84-35.84s-15.872-35.84-35.84-35.84h-647.68v71.68z m0 221.696h467.456c19.456 0 35.84-15.872 35.84-35.84s-15.872-35.84-35.84-35.84h-467.456v71.68z" p-id="3269" fill="#ffffff"></path></svg>