<svg height="64" viewBox="0 0 1024 1024" width="64" xmlns="http://www.w3.org/2000/svg"><path d="m308.73856 119.23456c-285.0816 50.9184-380.1088 373.0048-153.34656 520.43008 12.43392 7.99232 12.43392 7.10656-6.21824 62.76096l-15.98464 47.65952 57.43104-30.78656 57.43104-30.78656 30.49216 7.40096c31.96928 7.99232 72.82432 13.61664 100.0576 13.61664h16.28416l-5.62688-21.61152c-44.70016-164.5952 109.82912-327.71072 310.83776-327.71072h27.23584l-5.62432-19.53792c-44.11136-154.23488-230.31552-253.99808-412.96896-221.43488zm-24.86784 144.16896c30.1952 20.4288 31.97184 64.5376 2.95936 83.48416-47.06816 30.78656-102.1312-23.38816-70.45632-69.57056 13.9136-20.72064 47.36768-27.53024 67.49696-13.9136zm242.74944 0c49.73312 33.45408 12.43392 110.71744-43.22304 89.40288-40.25856-15.39328-44.99712-70.75072-7.40096-90.5856 14.80192-7.99232 37.89312-7.40096 50.624 1.18272zm109.82912 121.96864c-141.2096 25.7536-239.19616 132.91776-233.57184 256.06912 7.40096 164.89216 200.71168 278.56896 386.32448 227.65056l21.90592-5.92128 46.1824 24.86784c25.4592 13.9136 46.77376 23.97952 47.36512 22.79424.59392-1.47968-4.43904-19.24096-10.95168-39.6672-14.80192-45.59104-15.09888-42.33472 4.736-56.54272 223.20896-160.15616 27.23584-481.64864-261.9904-429.25056zm-5.62432 132.91776c12.43136 8.28928 18.944 29.01248 13.61664 44.11136-11.24864 32.26624-59.50208 34.63424-72.52992 3.55072-14.80192-35.81952 26.05312-68.97664 58.91328-47.66208zm197.74976 3.55328c19.53792 18.6496 16.2816 50.32704-6.51264 62.16704-34.9312 17.76128-71.63904-17.76128-53.5808-51.80672 11.84-21.90592 42.33216-27.23328 60.09344-10.36032zm-264.27392 319.81312" fill="#666"/></svg>