<?xml version="1.0" standalone="no"?><!DOCTYPE svg PUBLIC "-//W3C//DTD SVG 1.1//EN" "http://www.w3.org/Graphics/SVG/1.1/DTD/svg11.dtd"><svg t="1540462741442" class="icon" style="" viewBox="0 0 1024 1024" version="1.1" xmlns="http://www.w3.org/2000/svg" p-id="3896" xmlns:xlink="http://www.w3.org/1999/xlink" width="64" height="64"><defs><style type="text/css"></style></defs><path d="M411.057 267.54h203.17c11.233 0 20.318-9.078 20.318-20.319 0-11.209-9.085-20.316-20.318-20.316h-203.17c-11.249 0-20.318 9.107-20.318 20.316 0.001 11.242 9.069 20.319 20.318 20.319z m101.586 162.538c-67.321 0-121.903 54.574-121.903 121.905 0 67.318 54.583 121.903 121.903 121.903 67.32 0 121.902-54.585 121.902-121.903 0.001-67.332-54.581-121.905-121.902-121.905z m0 203.174c-44.881 0-81.268-36.388-81.268-81.268 0-44.881 36.387-81.269 81.268-81.269 44.88 0 81.267 36.388 81.267 81.269 0 44.879-36.386 81.268-81.267 81.268z m0-284.442c-112.201 0-203.173 90.961-203.173 203.174 0 112.198 90.971 203.172 203.173 203.172 112.201 0 203.171-90.973 203.171-203.172 0-112.214-90.97-203.174-203.171-203.174z m0 365.71c-89.761 0-162.539-72.757-162.539-162.536 0-89.762 72.778-162.539 162.539-162.539 89.76 0 162.537 72.777 162.537 162.539 0.002 89.779-72.777 162.536-162.537 162.536z m365.71-487.614h-81.269c-60.952 0-60.952-81.269-142.22-81.269H370.422c-81.269 0-81.269 81.269-142.22 81.269h-81.269c-44.881 0-81.268 36.387-81.268 81.269v487.613c0 44.88 36.388 81.268 81.268 81.268h731.421c44.88 0 81.268-36.388 81.268-81.268V308.176c0-44.883-36.388-81.27-81.269-81.27z m40.635 406.346H742.283c-5.021 14.206-11.269 27.797-18.711 40.635h195.417v121.902c0 22.439-18.197 40.633-40.635 40.633H146.932c-22.44 0-40.635-18.194-40.635-40.633V673.887h195.435c-7.46-12.838-13.709-26.429-18.75-40.635H106.298V308.176c0-22.431 18.194-40.635 40.635-40.635h81.269c81.269 0 81.269-81.269 142.22-81.269H654.863c60.952 0 60.952 81.269 142.22 81.269h81.269c22.439 0 40.635 18.204 40.635 40.635v325.076h0.001M817.401 470.713c-11.248 0-20.318 9.107-20.318 20.316 0 11.24 9.07 20.318 20.318 20.318 11.231 0 20.317-9.077 20.317-20.318 0-11.209-9.086-20.316-20.317-20.316z m0-162.537c-33.649 0-60.952 27.311-60.952 60.952 0 33.669 27.302 60.952 60.952 60.952 33.631 0 60.952-27.281 60.952-60.952 0-33.641-27.321-60.952-60.952-60.952z m0 81.268c-11.248 0-20.318-9.077-20.318-20.318 0-11.211 9.07-20.318 20.318-20.318 11.231 0 20.317 9.107 20.317 20.318 0 11.241-9.086 20.318-20.317 20.318z" fill="#999999" p-id="3897"></path></svg>