<?xml version="1.0" standalone="no"?><!DOCTYPE svg PUBLIC "-//W3C//DTD SVG 1.1//EN" "http://www.w3.org/Graphics/SVG/1.1/DTD/svg11.dtd"><svg t="1534922061306" class="icon" style="" viewBox="0 0 1024 1024" version="1.1" xmlns="http://www.w3.org/2000/svg" p-id="44422" xmlns:xlink="http://www.w3.org/1999/xlink" width="32" height="32"><defs><style type="text/css"></style></defs><path d="M957.456 378.978c7.058 6.414 4.756 29.973 4.756 45.134 0 34.311 0 64.253 0 98.574 0 20.848 3.202 43.589-3.57 54.637-2.65 4.327-8.336 9.525-13.063 14.251-37.247 37.247-71.997 71.997-109.274 109.273-6.496 6.497-14.086 11.959-17.81 17.82-1.697 2.67-2.179 6.117-3.559 9.503-0.215 0.511-1.125-0.071-1.197 1.187-0.010 0.318 0.123 0.89 0 1.187-0.318 0.808-1.044 0.859-1.187 1.187-0.696 1.698-0.338 3.069-1.187 4.747-0.297 0.604-1.115-0.133-1.187 1.187-0.082 1.545-1.872 1.483-2.372 2.384-0.871 1.534-0.267 3.202-1.187 4.747-0.286 0.482-2.19 0.778-2.373 1.187-1.023 2.261-0.92 3.836-2.384 5.945-0.285 0.419-2.198 0.808-2.372 1.187-0.726 1.615-0.83 2.792-2.373 4.747-1.442 1.821-3.192 2.997-4.747 4.757-5.689 6.414-10.598 11.263-17.821 16.623-7.323 5.441-16.542 11.876-24.94 17.82-0.931 0.655-2.322 2.312-3.569 2.372-1.157 0.062-5.054 3.407-7.12 4.748-0.665 0.43 0.184 1.115-1.187 1.186-0.235 0.021-1.003-0.122-1.187 0-1.514 1.044-2.169 2.588-3.57 3.57-1.371 0.962-3.233 1.289-4.747 2.373-1.423 1.013-1.964 2.465-3.56 3.559-2.486 1.698-5.779 2.998-8.317 4.757-1.33 0.91-2.343 2.742-3.559 3.56-1.729 1.156-3.192 1.289-4.757 2.372-1.483 1.033-2.056 2.487-3.56 3.57-1.33 0.941-3.202 1.279-4.756 2.373-1.279 0.89-2.302 2.701-3.56 3.559-0.43 0.297-2.056-0.389-2.372 0-0.941 1.156-1.126 1.483-2.373 2.373-1.371 0.972-2.373 2.721-3.57 3.57-0.419 0.297-2.056-0.4-2.372 0-0.349 0.418-0.767 2.076-1.187 2.372-0.43 0.297-2.057-0.389-2.373 0-0.941 1.146-1.156 1.473-2.373 2.373-1.299 0.951-2.28 2.66-3.569 3.56-0.431 0.307-2.057-0.39-2.373 0-0.941 1.156-1.136 1.482-2.373 2.372-1.596 1.146-2.138 2.579-3.559 3.57-0.43 0.297-2.067-0.389-2.384 0-1.473 1.8-2.199 1.913-4.748 3.559-0.655 0.431 0.185 1.116-1.186 1.187-0.911 0.052-2.917 2.179-4.757 3.57-1.207 0.91-2.302 1.473-3.56 2.373-20.644 14.689-42.401 29.625-66.514 46.319-1.442 1.003-2.077 2.547-3.56 3.56-0.43 0.297-2.056-0.389-2.372 0-2.537 3.1-8.205 6.353-13.074 9.503-0.655 0.43 0.194 1.115-1.187 1.187-0.225 0.010-1.001-0.123-1.187 0-1.39 0.951-2.005 2.476-3.559 3.559-0.941 0.665-2.323 2.313-3.56 2.384-1.523 0.072-1.504 1.975-2.384 2.373-0.593 0.266-1.852-0.368-2.372 0-1.187 0.839-2.22 2.578-3.56 3.559-0.9 0.665-2.353 2.313-3.559 2.373-0.235 0.021-1.013-0.123-1.187 0-1.3 0.9-2.23 2.67-3.57 3.57-1.257 0.839-3.427 1.463-4.747 2.373-1.249 0.859-2.609 2.915-3.57 3.559-1.882 1.268-3.253 1.534-4.747 2.373-0.634 0.358 0.163 1.125-1.187 1.197-1.453 0.072-1.586 2.107-2.373 2.373-6.271 2.046-11.446-0.501-16.634-3.57-2.527-1.494-5.268-3.775-8.317-5.933-3.427-2.446-6.793-4.615-10.68-7.131-0.665-0.419 0.184-1.115-1.197-1.187-0.225-0.010-1.003 0.134-1.187 0-1.473-1.012-2.118-2.568-3.56-3.559-0.951-0.655-2.312-2.312-3.56-2.373-0.235-0.020-1.003 0.123-1.187 0-1.483-1.013-2.128-2.568-3.57-3.57-1.637-1.145-3.488-1.463-4.747-2.372-1.514-1.085-2.087-2.527-3.56-3.56-1.565-1.094-3.396-1.463-4.757-2.372-1.483-0.993-2.066-2.517-3.56-3.57-1.34-0.931-3.171-1.309-4.757-2.373-1.545-1.033-2.138-2.568-3.56-3.559-0.43-0.308-2.056 0.389-2.373 0-0.941-1.146-1.156-1.483-2.373-2.373-1.207-0.89-2.23-2.629-3.57-3.57-0.419-0.297-2.056 0.389-2.373 0-0.941-1.146-1.125-1.483-2.373-2.372-1.596-1.146-2.138-2.569-3.56-3.56-0.43-0.297-2.066 0.389-2.384 0-1.473-1.8-2.199-1.913-4.747-3.57-0.655-0.419 0.184-1.115-1.187-1.187-0.941-0.051-3.059-2.353-4.757-3.559-0.91-0.655-2.332-2.312-3.56-2.373-0.87-0.051-5.054-3.407-7.13-4.756-0.655-0.419 0.194-1.116-1.187-1.187-0.225-0.010-1.003 0.133-1.187 0-1.289-0.9-2.23-2.67-3.56-3.56-1.258-0.838-3.437-1.463-4.747-2.372-1.289-0.89-2.24-2.68-3.57-3.57-1.248-0.839-3.437-1.453-4.747-2.373-1.422-0.992-2.332-2.65-3.57-3.559-0.767-0.574-1.504-0.645-2.373-1.187-0.88-0.563-3.898-2.199-5.933-3.57-1.596-1.064-2.158-2.568-3.57-3.56-1.299-0.92-3.488-1.534-4.747-2.372-1.586-1.064-2.158-2.588-3.56-3.56-0.43-0.307-2.056 0.389-2.384 0-0.941-1.156-1.125-1.483-2.373-2.384-1.35-0.971-2.24-2.65-3.56-3.559-0.43-0.297-2.056 0.389-2.373 0-1.473-1.8-2.199-1.913-4.757-3.56-0.655-0.43 0.184-1.115-1.187-1.187-1.033-0.061-2.895-2.239-4.747-3.569-0.921-0.656-2.332-2.313-3.57-2.373-1.156-0.061-5.043-3.407-7.12-4.747-0.665-0.43 0.184-1.115-1.187-1.187-0.225-0.021-1.013 0.123-1.187 0-1.34-0.941-2.332-2.742-3.57-3.57-1.719-1.146-3.181-1.279-4.747-2.373-1.422-0.992-2.015-2.527-3.56-3.559-1.586-1.064-3.417-1.442-4.757-2.373-1.442-1.013-2.025-2.465-3.56-3.57-1.228-0.87-3.447-1.463-4.757-2.372-1.289-0.9-2.281-2.69-3.56-3.56-0.43-0.297-2.056 0.389-2.373 0-0.951-1.166-1.105-1.494-2.373-2.384-1.309-0.9-2.291-2.68-3.57-3.559-0.43-0.297-2.056 0.389-2.373 0-2.199-2.69-6.66-5.442-10.69-8.317-14.076-10.015-28.848-19.54-40.377-32.060-1.361-1.473-2.384-3.295-3.57-4.757-1.033-1.279-2.721-2.424-3.56-3.56-0.317-0.418 0.389-2.056 0-2.372-5.534-4.533-8.44-14.117-13.063-21.38-0.563-0.88-1.534-3.488-2.373-5.943-0.829-2.414-1.79-4.951-3.57-7.12-8.992-10.997-23.733-23.743-34.444-34.444-30.669-30.679-58.862-60.059-91.454-92.651-3.038-3.038-7.038-5.483-9.503-8.307-0.665-0.767-1.831-1.667-2.373-2.384-0.777-1.013-0.409-2.332-1.187-3.559-0.634-1.013-1.739-0.993-2.373-2.373-0.205-0.43 0.338-2.097 0-2.373-2.199-1.8-1.187-15.948-1.187-24.94 0-48.387-2.015-96.641 0-148.475 0.368-9.473 0.358-15.15 4.747-18.997 6.179-5.432 18.066-3.57 30.884-3.57 34.802 0 65.327 0 99.771 0 2.261-1.852 1.136-5.688 1.187-8.307 1.545-77.337-1.248-160.393 0-242.302 0.123-7.908-0.409-12.603 1.187-19.007 0.307-1.207 0.9-0.573 1.187-1.187 0.634-1.371 1.708-4.644 3.56-5.933 0.43-0.297 2.056 0.389 2.384 0 4.010-4.91 31.579-2.373 42.75-2.373 175.932 0 349.173 0 528.542 0 11.099 0 23.303-1.841 30.883 2.373 0.624 0.348-0.152 1.115 1.187 1.187 1.79 0.092 1.187 3.018 4.748 5.933 0 89.48 0 178.96 0 268.429 10.3 2.148 21.616 1.187 33.257 1.187 22.669 0 42.75 0 68.887 0 11.261-0.006 24.364-2.359 30.871 3.564zM932.515 553.57c0-49.88 0-99.771 0-149.651-276.746 0-553.482 0-830.229 0-1.381 0.194-1.289 1.872-1.187 3.56 0 48.694 0 97.398 0 146.091 277.135 0 554.281 0 831.415 0zM909.947 585.641c0.256-1.495 1.853-2.424-1.187-2.373-28.11 0-56.223 0-84.333 0 0 28.499 0 57.009 0 85.511 5.063-1.207 7.458-6.261 10.689-9.503 25.104-25.095 50.054-49.298 74.831-73.634zM794.74 690.158c3.387-13.566 1.187-35.427 1.187-53.451 0-17.595 0-35.201 0-53.44-185.681 0-371.361 0-557.042 0-1.391 0.193-1.289 1.872-1.197 3.559 0 17.728 0 34.955 0 52.265 0 17.923-1.698 41.901 1.197 53.439 0.184 0.747-0.123 1.627 0 2.384 0.696 4.542 1.207 7.918 2.373 11.877 0.644 2.198 2.066 3.518 2.373 4.747 0.379 1.524 0.931 2.517 1.187 3.56 0.43 1.698 0.45 2.404 1.187 3.569 2.414 3.785 4.031 8.195 5.943 10.69 1.719 2.24 2.435 4.123 3.56 5.933 0.43 0.697 1.841 1.647 2.373 2.373 0.747 1.013 1.719 1.514 2.373 2.384 0.696 0.9 0.409 2.67 1.197 3.56 3.632 4.143 9.166 7.938 14.25 11.876 0.542 0.419 0.409 0.697 1.187 1.187 0.849 0.542 1.596 0.655 2.373 1.187 1.166 0.798 2.517 2.823 3.56 3.57 1.688 1.187 3.171 1.308 4.757 2.372 1.238 0.83 2.22 2.62 3.56 3.56 0.532 0.368 1.78-0.266 2.373 0 0.379 0.174 0.767 2.077 1.197 2.373 1.238 0.859 3.427 1.472 4.747 2.372 1.565 1.085 2.169 2.62 3.56 3.57 0.184 0.123 0.962-0.010 1.187 0 1.923 0.102 3.499 2.762 4.757 3.56 0.849 0.541 1.586 0.655 2.373 1.186 1.156 0.789 2.517 2.835 3.56 3.57 0.184 0.123 0.962-0.020 1.187 0 1.217 0.062 2.67 1.708 3.57 2.373 1.197 0.879 2.22 2.619 3.56 3.559 0.522 0.368 1.78-0.266 2.373 0 0.88 0.4 0.859 2.291 2.373 2.373 1.248 0.072 2.629 1.719 3.57 2.373 1.289 0.91 2.291 2.69 3.56 3.569 0.184 0.123 0.962-0.010 1.187 0 1.238 0.062 2.639 1.72 3.56 2.373 2.251 1.586 6.977 5.872 8.317 5.933 1.238 0.072 2.65 1.72 3.57 2.384 1.279 0.911 2.179 2.598 3.56 3.56 0.532 0.367 1.78-0.266 2.373 0 0.88 0.399 0.859 2.291 2.373 2.372 1.371 0.072 0.532 0.767 1.187 1.187 4.941 3.202 10.711 6.835 14.26 9.503 1.616 1.228 3.857 3.519 4.747 3.57 1.371 0.072 0.532 0.757 1.187 1.187 2.557 1.646 3.284 1.76 4.757 3.559 0.317 0.389 1.944-0.297 2.373 0 1.77 1.238 1.841 3.469 3.56 3.56 1.371 0.072 0.532 0.767 1.187 1.187 2.394 1.545 4.276 2.312 5.943 3.569 1.33 1.003 2.384 2.732 3.56 3.56 0.532 0.368 1.78-0.266 2.373 0 0.88 0.399 0.859 2.291 2.373 2.373 1.381 0.071 0.532 0.767 1.197 1.187 4.685 3.038 10.833 6.926 14.25 9.502 1.78 1.341 3.775 3.51 4.747 3.56 1.371 0.082 0.532 0.767 1.187 1.197 2.557 1.647 3.284 1.76 4.757 3.56 0.317 0.389 1.944-0.297 2.373 0 0.409 0.285 0.849 1.953 1.187 2.372 0.327 0.4 1.964-0.326 2.373 0 1.176 0.921 2.261 2.639 3.57 3.56 1.248 0.89 1.432 1.228 2.373 2.384 0.317 0.379 1.944-0.297 2.373 0 1.483 1.012 2.118 2.557 3.56 3.559 2.752 1.903 4.45 2.926 5.943 4.748 0.317 0.389 1.944-0.297 2.373 0 1.279 0.879 2.291 2.628 3.56 3.569 1.228 0.89 1.442 1.228 2.384 2.373 0.317 0.389 1.944-0.297 2.373 0 0.419 0.297 0.839 1.954 1.187 2.373 0.317 0.389 1.944-0.297 2.373 0 1.197 0.838 2.199 2.598 3.57 3.559 1.248 0.89 1.422 1.228 2.373 2.384 0.317 0.379 1.944-0.297 2.373 0 1.514 1.033 2.158 2.579 3.56 3.56 0.389 0.266 2.036 1.166 2.373 1.187 2.189 0.112 2.762 2.587 3.57 3.559 0.317 0.389 1.944-0.297 2.373 0 1.279 0.88 2.24 2.68 3.56 3.57 1.33 0.89 3.509 1.513 4.757 2.372 0.409 0.277 0.849 1.965 1.187 2.373 0.317 0.389 1.944-0.297 2.373 0 1.044 0.737 2.414 2.762 3.56 3.56 2.761 1.923 6.189 3.325 8.317 5.943 6.169-2.373 11.364-6.966 16.634-10.69 2.731-1.933 4.44-2.925 5.933-4.747 0.318-0.389 1.954 0.297 2.373 0 1.432-1.013 1.964-2.424 3.57-3.57 1.238-0.89 1.431-1.216 2.372-2.372 0.318-0.39 1.944 0.296 2.373 0 0.419-0.297 0.839-1.954 1.187-2.373 0.327-0.4 1.964 0.327 2.373 0 1.32-1.033 2.024-2.476 3.569-3.57 1.249-0.88 1.432-1.216 2.373-2.373 0.317-0.389 1.944 0.297 2.373 0 1.279-0.87 2.261-2.66 3.559-3.559 1.279-0.88 1.432-1.217 2.384-2.373 0.318-0.389 1.944 0.286 2.373 0 1.39-0.951 2.005-2.486 3.559-3.57 1.238-0.859 3.458-1.441 4.757-2.372 1.299-0.931 2.22-2.629 3.559-3.56 2.528-1.769 5.841-3.038 8.318-4.747 1.279-0.89 2.23-2.68 3.559-3.57s3.509-1.504 4.747-2.373c1.442-1.012 2.025-2.454 3.57-3.559 1.217-0.88 3.437-1.463 4.748-2.384 1.412-0.972 2.046-2.517 3.559-3.56 0.184-0.122 0.962 0.011 1.187 0 1.923-0.102 3.499-2.761 4.757-3.559 0.848-0.542 1.596-0.655 2.372-1.187 1.3-0.88 2.312-2.69 3.56-3.57 0.184-0.123 0.961 0.021 1.197 0 1.371-0.071 0.522-0.756 1.187-1.186 2.076-1.341 6.249-4.707 7.12-4.748 1.238-0.061 2.65-1.719 3.569-2.373 1.688-1.216 3.806-3.518 4.748-3.569 1.371-0.072 0.532-0.757 1.187-1.187 2.557-1.647 3.284-1.76 4.747-3.56 0.327-0.389 1.954 0.297 2.384 0 1.769-1.238 1.841-3.477 3.559-3.559 1.372-0.082 0.533-0.767 1.187-1.187 4.941-3.202 10.281-6.107 13.064-9.503 0.317-0.389 1.954 0.286 2.384 0 1.166-0.808 2.21-2.619 3.559-3.57 1.258-0.879 1.432-1.216 2.373-2.372 0.317-0.39 1.943 0.297 2.373 0 1.279-0.871 2.271-2.651 3.569-3.56 0.379-0.276 2.036-1.176 2.373-1.187 2.179-0.123 2.762-2.587 3.56-3.57 0.317-0.377 1.943 0.297 2.372 0 1.289-0.879 2.24-2.669 3.57-3.559 1.248-0.839 3.427-1.463 4.747-2.373 1.331-0.92 2.343-2.742 3.56-3.559 1.719-1.156 3.18-1.289 4.756-2.384 1.442-1.003 2.016-2.455 3.56-3.56 1.769-1.267 5.217-3.11 5.943-3.559 0.849-0.542 1.587-0.656 2.373-1.187 1.597-1.095 2.148-2.568 3.56-3.57 1.299-0.92 3.499-1.534 4.756-2.372 1.597-1.075 2.149-2.579 3.56-3.56 0.174-0.133 0.961 0.010 1.187 0 1.371-0.072 0.532-0.767 1.186-1.187 2.077-1.34 5.964-4.695 7.131-4.756 1.227-0.062 2.639-1.72 3.559-2.373 1.279-0.921 2.179-2.598 3.56-3.56 0.532-0.367 1.779 0.267 2.384 0 0.87-0.399 0.849-2.302 2.372-2.372 1.249-0.072 2.62-1.729 3.56-2.384 1.728-1.197 3.774-3.51 4.756-3.56 1.372-0.071 0.523-0.757 1.187-1.187 3.447-2.23 6.68-5.492 9.493-8.317 1.8-1.8 7.069-7.191 7.13-8.317 0.123-2.343 3.458-2.742 3.56-4.747 0.082-1.473 2.854-4.164 3.57-4.748 0.358-0.307-0.246-1.943 0-2.383 0.377-0.675 1.974-1.575 2.372-2.373 1.105-2.21 1.371-4.777 2.373-7.12 0.061-0.144 1.064 0.102 1.187 0 0.102-0.092 1.187-3.57 1.187-3.57 0.389-1.524 0.93-2.517 1.186-3.559 0.39-1.524 0.931-2.518 1.198-3.56 0.5-2.015 0.788-3.447 1.186-4.757 1.060-3.456 0.589-8.233 1.203-10.688zM795.926 375.408c0-83.137 0-166.275 0-249.422-185.681 0-371.361 0-557.042 0-1.391 0.205-1.289 1.882-1.197 3.57 0 81.951 0 163.901 0 245.852 186.080 0 372.159 0 558.239 0zM205.628 667.591c1.494 0.266 2.424 1.853 2.373-1.187 0-27.712 0-55.425 0-83.137-27.6 1.422-58.32-1.913-84.334 0-0.726 0.051-1.401 0.184-1.187 1.187 28.214 27.221 55.926 54.934 83.148 83.137z" p-id="44423" fill="rgb(107, 42, 42)"></path></svg>