<?xml version="1.0" standalone="no"?><!DOCTYPE svg PUBLIC "-//W3C//DTD SVG 1.1//EN" "http://www.w3.org/Graphics/SVG/1.1/DTD/svg11.dtd"><svg t="1543498364381" class="icon" style="" viewBox="0 0 1024 1024" version="1.1" xmlns="http://www.w3.org/2000/svg" p-id="7359" xmlns:xlink="http://www.w3.org/1999/xlink" width="32" height="32"><defs><style type="text/css"></style></defs><path d="M823.1 945.3H204c-67.6 0-122.7-55-122.7-122.7V203.5c0-67.6 55-122.7 122.7-122.7h619.1c67.6 0 122.7 55 122.7 122.7v619.1c0 67.7-55.1 122.7-122.7 122.7zM204 138.2c-36 0-65.4 29.3-65.4 65.4v619.1c0 36 29.3 65.4 65.4 65.4h619.1c36 0 65.4-29.3 65.4-65.4V203.5c0-36-29.3-65.4-65.4-65.4H204z" p-id="7360" fill="#d13954"></path></svg>